<svg width="103" height="24" viewBox="0 0 103 24" fill="none" xmlns="http://www.w3.org/2000/svg">
<path d="M0.583984 10.0107C0.583984 4.95804 4.4698 0.94751 9.77725 0.94751C13.7578 0.94751 17.2961 3.5054 18.2755 7.23172H14.3897C13.6631 5.4633 11.736 4.42119 9.77725 4.42119C6.4285 4.42119 4.18547 6.88435 4.18547 10.0107C4.18547 13.137 6.39691 15.6001 9.77725 15.6001C11.736 15.6001 13.6947 14.5265 14.3897 12.7896H18.2755C17.2961 16.5159 13.7578 19.0738 9.77725 19.0738C4.4698 19.0738 0.583984 15.0949 0.583984 10.0107Z" fill="#062B61"/>
<path d="M19.9814 12.6001C19.9814 9.00007 22.8879 6.15796 26.4894 6.15796C30.0909 6.15796 32.9973 9.00007 32.9973 12.6001C32.9973 16.2316 30.0909 19.0422 26.4894 19.0422C22.8879 19.0422 19.9814 16.2316 19.9814 12.6001ZM29.5222 12.6001C29.5222 10.7053 28.2269 9.31585 26.4578 9.31585C24.6886 9.31585 23.3618 10.7053 23.3618 12.6001C23.3618 14.4948 24.6571 15.8843 26.4578 15.8843C28.2269 15.8843 29.5222 14.5264 29.5222 12.6001Z" fill="#062B61"/>
<path d="M35.4619 23.9368V6.44209H38.8423V7.83156C39.4109 7.04208 40.7062 6.18945 42.4122 6.18945C45.6977 6.18945 48.2251 9.15787 48.2251 12.6316C48.2251 16.1052 45.6977 19.0737 42.4122 19.0737C40.7062 19.0737 39.4109 18.221 38.8423 17.4316V23.9684H35.4619V23.9368ZM44.7816 12.6C44.7816 10.6421 43.5495 9.25261 41.6855 9.25261C39.8216 9.25261 38.5895 10.6737 38.5895 12.6C38.5895 14.5579 39.8216 15.9473 41.6855 15.9473C43.5495 15.9789 44.7816 14.5579 44.7816 12.6Z" fill="#062B61"/>
<path d="M51.1946 23.9369L53.7851 18.0948L48.604 6.44214H52.3003L55.6174 14.4316L58.903 6.44214H62.6309L54.8908 23.9369H51.1946Z" fill="#062B61"/>
<path d="M64.5262 1.26318H70.9394C73.909 1.26318 76.1521 3.56845 76.1521 6.34739C76.1521 7.70529 75.6466 8.71581 74.762 9.47371C76.31 10.2316 77.3526 11.6527 77.3526 13.6105C77.3526 16.5158 75.0464 18.7579 71.9188 18.7579H64.4946V1.26318H64.5262ZM70.6235 8.4316C71.8872 8.4316 72.7086 7.57897 72.7086 6.47371C72.7086 5.40002 71.8872 4.48424 70.6235 4.48424H68.1277V8.40002H70.6235V8.4316ZM71.6976 15.5053C73.0561 15.5053 73.909 14.6527 73.909 13.5158C73.909 12.379 73.0561 11.4948 71.6976 11.4948H68.1277V15.5053H71.6976Z" fill="#062B61"/>
<path d="M80.1011 6.44223H83.4814V8.43171C83.8921 7.23171 85.1558 6.31592 86.5459 6.31592C86.925 6.31592 87.2725 6.3475 87.6832 6.47381V9.91592C87.1777 9.75802 86.7354 9.63171 86.1668 9.63171C84.5556 9.63171 83.513 10.8633 83.513 12.9159V18.8212H80.1011V6.44223Z" fill="#062B61"/>
<path d="M89.0103 12.6001C89.0103 9.00007 91.9167 6.15796 95.5182 6.15796C99.1197 6.15796 102.026 9.00007 102.026 12.6001C102.026 16.2316 99.1197 19.0422 95.5182 19.0422C91.9167 19.0422 89.0103 16.2316 89.0103 12.6001ZM98.5826 12.6001C98.5826 10.7053 97.2873 9.31585 95.5182 9.31585C93.749 9.31585 92.4222 10.7053 92.4222 12.6001C92.4222 14.4948 93.7174 15.8843 95.5182 15.8843C97.2557 15.8843 98.5826 14.5264 98.5826 12.6001Z" fill="#062B61"/>
</svg>
