<svg width="136" height="31" viewBox="0 0 136 31" fill="none" xmlns="http://www.w3.org/2000/svg">
<path d="M0.480957 12.3474C0.480957 5.61055 5.63664 0.263184 12.6786 0.263184C17.96 0.263184 22.6546 3.67371 23.954 8.64213H18.7983C17.8343 6.28424 15.2774 4.89476 12.6786 4.89476C8.23545 4.89476 5.2594 8.17897 5.2594 12.3474C5.2594 16.5158 8.19353 19.8 12.6786 19.8C15.2774 19.8 17.8762 18.3684 18.7983 16.0527H23.954C22.6546 21.0211 17.96 24.4316 12.6786 24.4316C5.63664 24.4316 0.480957 19.1263 0.480957 12.3474Z" fill="#062B61"/>
<path d="M26.2178 15.7999C26.2178 10.9999 30.0741 7.21045 34.8525 7.21045C39.6309 7.21045 43.4872 10.9999 43.4872 15.7999C43.4872 20.642 39.6309 24.3894 34.8525 24.3894C30.0741 24.3894 26.2178 20.642 26.2178 15.7999ZM38.8765 15.7999C38.8765 13.2736 37.1579 11.421 34.8106 11.421C32.4633 11.421 30.7028 13.2736 30.7028 15.7999C30.7028 18.3262 32.4214 20.1789 34.8106 20.1789C37.1579 20.1789 38.8765 18.3683 38.8765 15.7999Z" fill="#062B61"/>
<path d="M46.7563 30.9156V7.58928H51.2414V9.44191C51.9959 8.38928 53.7144 7.25244 55.9779 7.25244C60.3372 7.25244 63.6905 11.2103 63.6905 15.8419C63.6905 20.4735 60.3372 24.4314 55.9779 24.4314C53.7144 24.4314 51.9959 23.2945 51.2414 22.2419V30.9577H46.7563V30.9156ZM59.1216 15.7998C59.1216 13.1893 57.4869 11.3367 55.0138 11.3367C52.5408 11.3367 50.906 13.2314 50.906 15.7998C50.906 18.4103 52.5408 20.263 55.0138 20.263C57.4869 20.3051 59.1216 18.4103 59.1216 15.7998Z" fill="#062B61"/>
<path d="M67.631 30.9157L71.0681 23.1262L64.1938 7.58936H69.098L73.4992 18.242L77.8585 7.58936H82.8046L72.5352 30.9157H67.631Z" fill="#062B61"/>
<path d="M85.3193 0.684082H93.8282C97.7684 0.684082 100.744 3.75777 100.744 7.46303C100.744 9.27355 100.074 10.6209 98.9001 11.6315C100.954 12.642 102.337 14.5367 102.337 17.1472C102.337 21.0209 99.2774 24.0104 95.1277 24.0104H85.2773V0.684082H85.3193ZM93.4091 10.242C95.0857 10.242 96.1756 9.10513 96.1756 7.63145C96.1756 6.19987 95.0857 4.97882 93.4091 4.97882H90.0977V10.1999H93.4091V10.242ZM94.8342 19.6736C96.6366 19.6736 97.7684 18.5367 97.7684 17.0209C97.7684 15.5051 96.6366 14.3262 94.8342 14.3262H90.0977V19.6736H94.8342Z" fill="#062B61"/>
<path d="M105.984 7.58956H110.469V10.2422C111.014 8.6422 112.69 7.42114 114.535 7.42114C115.038 7.42114 115.499 7.46325 116.044 7.63167V12.2211C115.373 12.0106 114.786 11.8422 114.032 11.8422C111.894 11.8422 110.511 13.4843 110.511 16.2211V24.0948H105.984V7.58956Z" fill="#062B61"/>
<path d="M117.805 15.7999C117.805 10.9999 121.661 7.21045 126.439 7.21045C131.218 7.21045 135.074 10.9999 135.074 15.7999C135.074 20.642 131.218 24.3894 126.439 24.3894C121.661 24.3894 117.805 20.642 117.805 15.7999ZM130.505 15.7999C130.505 13.2736 128.787 11.421 126.439 11.421C124.092 11.421 122.332 13.2736 122.332 15.7999C122.332 18.3262 124.05 20.1789 126.439 20.1789C128.745 20.1789 130.505 18.3683 130.505 15.7999Z" fill="#062B61"/>
</svg>
