<svg width="166" height="67" viewBox="0 0 166 67" fill="none" xmlns="http://www.w3.org/2000/svg">
<path d="M38.6387 33.4855C38.6526 32.4149 38.9383 31.3652 39.4692 30.434C40.0002 29.5029 40.7591 28.7205 41.6754 28.1598C41.0933 27.3322 40.3254 26.6512 39.4326 26.1708C38.5398 25.6903 37.5468 25.4237 36.5324 25.3921C34.3685 25.1661 32.2707 26.681 31.168 26.681C30.044 26.681 28.3463 25.4146 26.5181 25.452C25.3356 25.4901 24.1831 25.8323 23.173 26.4455C22.1629 27.0587 21.3296 27.9219 20.7542 28.951C18.2621 33.246 20.121 39.5581 22.5083 43.0298C23.7027 44.7298 25.0986 46.6287 26.9252 46.5614C28.7126 46.4876 29.3801 45.4269 31.5376 45.4269C33.6751 45.4269 34.3014 46.5614 36.165 46.5186C38.083 46.4876 39.2913 44.811 40.4439 43.0949C41.302 41.8836 41.9624 40.5449 42.4005 39.1282C41.2862 38.6591 40.3353 37.8739 39.6664 36.8705C38.9974 35.867 38.64 34.6898 38.6387 33.4855Z" fill="#07152A"/>
<path d="M35.1191 23.1092C36.1648 21.8596 36.68 20.2534 36.5553 18.6318C34.9576 18.7989 33.4818 19.5589 32.422 20.7606C31.9037 21.3476 31.5069 22.0306 31.254 22.7704C31.0011 23.5102 30.8972 24.2924 30.9482 25.0722C31.7473 25.0804 32.5378 24.9079 33.2603 24.5679C33.9828 24.2279 34.6183 23.7291 35.1191 23.1092Z" fill="#07152A"/>
<path d="M61.2328 38.8555H55.1333L53.6685 43.1607H51.085L56.8623 27.2324H59.5465L65.3238 43.1607H62.6963L61.2328 38.8555ZM55.765 36.8688H60.5998L58.2164 29.8817H58.1497L55.765 36.8688Z" fill="#07152A"/>
<path d="M77.8022 37.3556C77.8022 40.9644 75.8617 43.283 72.9334 43.283C72.1916 43.3216 71.4539 43.1515 70.8047 42.7922C70.1555 42.4328 69.6211 41.8988 69.2627 41.2512H69.2072V47.0032H66.8125V31.5485H69.1305V33.48H69.1746C69.5495 32.8355 70.0929 32.3042 70.7471 31.9427C71.4012 31.5812 72.1416 31.4029 72.8894 31.4269C75.8504 31.427 77.8022 33.7568 77.8022 37.3556ZM75.3408 37.3556C75.3408 35.0044 74.1201 33.4587 72.2577 33.4587C70.4279 33.4587 69.1972 35.037 69.1972 37.3556C69.1972 39.6955 70.4279 41.2625 72.2577 41.2625C74.1201 41.2625 75.3408 39.728 75.3408 37.3556Z" fill="#07152A"/>
<path d="M90.6425 37.3556C90.6425 40.9644 88.7021 43.283 85.7738 43.283C85.032 43.3216 84.2942 43.1515 83.645 42.7922C82.9959 42.4328 82.4614 41.8988 82.103 41.2512H82.0476V47.0032H79.6528V31.5484H81.9708V33.48H82.0149C82.3898 32.8355 82.9332 32.3042 83.5874 31.9427C84.2415 31.5812 84.9819 31.4029 85.7297 31.4269C88.6907 31.4269 90.6425 33.7568 90.6425 37.3556ZM88.1811 37.3556C88.1811 35.0044 86.9604 33.4587 85.098 33.4587C83.2683 33.4587 82.0375 35.037 82.0375 37.3556C82.0375 39.6955 83.2683 41.2625 85.098 41.2625C86.9604 41.2625 88.1811 39.728 88.1811 37.3556H88.1811Z" fill="#07152A"/>
<path d="M99.1287 38.7227C99.3061 40.3022 100.848 41.3393 102.954 41.3393C104.973 41.3393 106.425 40.3022 106.425 38.8779C106.425 37.6416 105.549 36.9013 103.475 36.394L101.401 35.8967C98.463 35.1902 97.0989 33.8224 97.0989 31.6027C97.0989 28.8545 99.5049 26.9668 102.922 26.9668C106.303 26.9668 108.621 28.8545 108.699 31.6027H106.281C106.137 30.0132 104.817 29.0537 102.887 29.0537C100.958 29.0537 99.6383 30.0244 99.6383 31.4374C99.6383 32.5635 100.481 33.2261 102.544 33.7334L104.307 34.1643C107.59 34.9372 108.954 36.2499 108.954 38.5798C108.954 41.5597 106.57 43.4261 102.777 43.4261C99.228 43.4261 96.832 41.6036 96.6772 38.7225L99.1287 38.7227Z" fill="#07152A"/>
<path d="M114.124 28.7998V31.548H116.342V33.4357H114.124V39.8379C114.124 40.8324 114.568 41.2959 115.543 41.2959C115.807 41.2913 116.07 41.2729 116.331 41.2408V43.1172C115.893 43.1987 115.447 43.2357 115.001 43.2274C112.639 43.2274 111.718 42.3443 111.718 40.0921V33.4357H110.021V31.548H111.718V28.7998H114.124Z" fill="#07152A"/>
<path d="M117.628 37.3552C117.628 33.7013 119.79 31.4053 123.161 31.4053C126.544 31.4053 128.696 33.7013 128.696 37.3552C128.696 41.0191 126.555 43.3051 123.161 43.3051C119.768 43.3051 117.628 41.0191 117.628 37.3552ZM126.256 37.3552C126.256 34.8487 125.102 33.3694 123.161 33.3694C121.221 33.3694 120.068 34.86 120.068 37.3552C120.068 39.8717 121.221 41.3398 123.161 41.3398C125.102 41.3398 126.256 39.8717 126.256 37.3552H126.256Z" fill="#07152A"/>
<path d="M130.667 31.5483H132.951V33.525H133.006C133.161 32.9076 133.524 32.3621 134.035 31.98C134.546 31.5979 135.174 31.4025 135.813 31.4268C136.089 31.4259 136.364 31.4557 136.633 31.5158V33.7454C136.285 33.6394 135.921 33.5908 135.557 33.6014C135.209 33.5873 134.862 33.6484 134.54 33.7804C134.219 33.9123 133.929 34.1121 133.692 34.3659C133.455 34.6197 133.276 34.9216 133.167 35.2509C133.058 35.5801 133.022 35.9288 133.062 36.2732V43.1613H130.667L130.667 31.5483Z" fill="#07152A"/>
<path d="M147.673 39.7502C147.351 41.8583 145.288 43.3051 142.649 43.3051C139.255 43.3051 137.149 41.0416 137.149 37.4103C137.149 33.7677 139.267 31.4053 142.549 31.4053C145.777 31.4053 147.806 33.6124 147.806 37.1335V37.9502H139.566V38.0942C139.528 38.5216 139.582 38.9522 139.724 39.3573C139.866 39.7624 140.093 40.1328 140.39 40.444C140.687 40.7551 141.047 40.9997 141.446 41.1618C141.845 41.3238 142.274 41.3994 142.705 41.3836C143.271 41.4364 143.839 41.3059 144.324 41.0116C144.809 40.7173 145.186 40.2749 145.399 39.7502L147.673 39.7502ZM139.578 36.2842H145.41C145.432 35.8999 145.373 35.5154 145.238 35.1547C145.104 34.794 144.895 34.4649 144.626 34.1881C144.358 33.9114 144.035 33.6929 143.677 33.5464C143.319 33.3999 142.935 33.3285 142.549 33.3368C142.159 33.3345 141.772 33.4091 141.411 33.5563C141.05 33.7034 140.722 33.9203 140.446 34.1943C140.17 34.4683 139.951 34.7941 139.802 35.1528C139.653 35.5115 139.577 35.896 139.578 36.2842V36.2842Z" fill="#07152A"/>
<rect x="0.5" y="0.5" width="165" height="66" rx="11.5" stroke="black"/>
</svg>
