<svg width="40" height="40" viewBox="0 0 40 40" fill="none" xmlns="http://www.w3.org/2000/svg">
<path d="M24.9221 20.3006C24.933 19.4659 25.156 18.6475 25.5706 17.9216C25.9852 17.1956 26.5778 16.5857 27.2933 16.1485C26.8388 15.5034 26.2391 14.9724 25.542 14.5979C24.8449 14.2233 24.0695 14.0155 23.2774 13.9908C21.5878 13.8146 19.9497 14.9957 19.0887 14.9957C18.2111 14.9957 16.8854 14.0083 15.4579 14.0375C14.5345 14.0672 13.6347 14.334 12.8459 14.8121C12.0572 15.2901 11.4065 15.9631 10.9573 16.7654C9.01131 20.1138 10.4628 25.0349 12.3269 27.7415C13.2595 29.0668 14.3495 30.5473 15.7758 30.4948C17.1714 30.4372 17.6927 29.6103 19.3773 29.6103C21.0464 29.6103 21.5354 30.4948 22.9906 30.4614C24.4882 30.4372 25.4317 29.1302 26.3316 27.7923C27.0017 26.8479 27.5174 25.8042 27.8595 24.6997C26.9894 24.334 26.2469 23.7218 25.7246 22.9395C25.2022 22.1572 24.9232 21.2394 24.9221 20.3006Z" fill="#050A3C"/>
<path d="M22.1739 12.2111C22.9904 11.2369 23.3927 9.98469 23.2953 8.72046C22.0478 8.85068 20.8954 9.44324 20.0679 10.3801C19.6632 10.8377 19.3533 11.3702 19.1559 11.9469C18.9584 12.5237 18.8773 13.1335 18.9171 13.7415C19.5411 13.7478 20.1584 13.6134 20.7225 13.3483C21.2866 13.0833 21.7829 12.6944 22.1739 12.2111Z" fill="#050A3C"/>
</svg>
