<svg width="166" height="67" viewBox="0 0 166 67" fill="none" xmlns="http://www.w3.org/2000/svg">
<path d="M129.135 40.5404H131.268V26.6042H129.135V40.5404ZM148.346 31.6243L145.901 37.6663H145.828L143.291 31.6243H140.993L144.798 40.0691L142.629 44.7665H144.854L150.718 31.6243H148.346ZM136.251 38.9575C135.551 38.9575 134.577 38.6169 134.577 37.7739C134.577 36.6982 135.791 36.2859 136.838 36.2859C137.777 36.2859 138.217 36.4831 138.787 36.7523C138.621 38.043 137.482 38.9575 136.251 38.9575V38.9575ZM136.508 31.3194C134.964 31.3194 133.365 31.983 132.703 33.4532L134.596 34.224C135 33.4532 135.753 33.2019 136.544 33.2019C137.648 33.2019 138.769 33.8477 138.787 34.9952V35.1384C138.401 34.9233 137.574 34.6007 136.563 34.6007C134.522 34.6007 132.444 35.694 132.444 37.7381C132.444 39.6028 134.118 40.8042 135.992 40.8042C137.427 40.8042 138.217 40.1767 138.714 39.4417H138.787V40.5173H140.846V35.1741C140.846 32.7003 138.953 31.3194 136.508 31.3194V31.3194ZM123.326 33.3208H120.293V28.5438H123.326C124.921 28.5438 125.826 29.8314 125.826 30.9322C125.826 32.0122 124.921 33.3208 123.326 33.3208ZM123.271 26.6042H118.161V40.5404H120.293V35.2604H123.271C125.635 35.2604 127.959 33.5912 127.959 30.9322C127.959 28.2733 125.635 26.6042 123.271 26.6042ZM95.4027 38.96C93.9292 38.96 92.6955 37.7568 92.6955 36.1043C92.6955 34.4343 93.9292 33.2129 95.4027 33.2129C96.8575 33.2129 97.9992 34.4343 97.9992 36.1043C97.9992 37.7568 96.8575 38.96 95.4027 38.96V38.96ZM97.8518 32.4046H97.7781C97.2995 31.848 96.3783 31.3451 95.2183 31.3451C92.7875 31.3451 90.5595 33.4283 90.5595 36.1043C90.5595 38.7624 92.7875 40.8278 95.2183 40.8278C96.3783 40.8278 97.2995 40.3248 97.7781 39.7504H97.8518V40.4328C97.8518 42.247 96.8575 43.2168 95.2554 43.2168C93.948 43.2168 93.1377 42.3005 92.8058 41.5284L90.9462 42.2827C91.4802 43.5398 92.8983 45.0845 95.2554 45.0845C97.7598 45.0845 99.8775 43.6474 99.8775 40.1454V31.6325H97.8518V32.4046ZM101.351 40.5404H103.487V26.6037H101.351V40.5404ZM106.636 35.9428C106.58 34.1107 108.091 33.1771 109.177 33.1771C110.025 33.1771 110.742 33.5899 110.981 34.1831L106.636 35.9428ZM113.265 34.3624C112.861 33.3025 111.626 31.3451 109.103 31.3451C106.599 31.3451 104.518 33.2668 104.518 36.0864C104.518 38.7446 106.58 40.8278 109.343 40.8278C111.571 40.8278 112.861 39.4987 113.394 38.7266L111.737 37.6488C111.185 38.4392 110.429 38.96 109.343 38.96C108.256 38.96 107.483 38.475 106.985 37.5234L113.486 34.9011L113.265 34.3624ZM61.4757 32.7999V34.8113H66.4108C66.2634 35.9428 65.8767 36.7688 65.2874 37.3436C64.5694 38.0442 63.446 38.8163 61.4757 38.8163C58.4371 38.8163 56.0617 36.4278 56.0617 33.4645C56.0617 30.5011 58.4371 28.1122 61.4757 28.1122C63.1147 28.1122 64.3113 28.741 65.1954 29.5492L66.6501 28.1305C65.4164 26.9808 63.7773 26.1008 61.4757 26.1008C57.3137 26.1008 53.8149 29.4055 53.8149 33.4645C53.8149 37.5234 57.3137 40.8278 61.4757 40.8278C63.7224 40.8278 65.4164 40.1097 66.7421 38.7624C68.1049 37.4333 68.5286 35.5656 68.5286 34.0572C68.5286 33.5899 68.4919 33.1592 68.4178 32.7999H61.4757ZM74.1394 38.96C72.6659 38.96 71.3951 37.7747 71.3951 36.0864C71.3951 34.3803 72.6659 33.2129 74.1394 33.2129C75.6123 33.2129 76.883 34.3803 76.883 36.0864C76.883 37.7747 75.6123 38.96 74.1394 38.96V38.96ZM74.1394 31.3451C71.4505 31.3451 69.259 33.3386 69.259 36.0864C69.259 38.8163 71.4505 40.8278 74.1394 40.8278C76.8277 40.8278 79.0192 38.8163 79.0192 36.0864C79.0192 33.3386 76.8277 31.3451 74.1394 31.3451ZM84.7848 38.96C83.3119 38.96 82.041 37.7747 82.041 36.0864C82.041 34.3803 83.3119 33.2129 84.7848 33.2129C86.2579 33.2129 87.5286 34.3803 87.5286 36.0864C87.5286 37.7747 86.2579 38.96 84.7848 38.96ZM84.7848 31.3451C82.096 31.3451 79.905 33.3386 79.905 36.0864C79.905 38.8163 82.096 40.8278 84.7848 40.8278C87.4733 40.8278 89.6647 38.8163 89.6647 36.0864C89.6647 33.3386 87.4733 31.3451 84.7848 31.3451Z" fill="#07152A"/>
<path d="M14.8415 48.9124L14.7462 48.8216C14.3731 48.4286 14.1528 47.8184 14.1528 47.0283V47.2142V18.9876C14.1528 18.9851 14.1528 18.9832 14.1528 18.9811C14.1528 18.9836 14.1528 18.9856 14.1528 18.9881V19.1746C14.1528 18.319 14.4097 17.6745 14.84 17.288L30.7261 33.1007L14.8415 48.9124ZM14.1528 18.9796C14.1528 18.9093 14.1548 18.841 14.1583 18.7737C14.1548 18.8405 14.1528 18.9093 14.1528 18.9796ZM14.1583 18.7707C14.1583 18.7698 14.1583 18.7688 14.1587 18.7677C14.1583 18.7688 14.1583 18.7698 14.1583 18.7707ZM14.1587 18.7617C14.1587 18.7612 14.1587 18.7607 14.1587 18.7602C14.1587 18.7607 14.1587 18.7612 14.1587 18.7617Z" fill="url(#paint0_linear_2_773)"/>
<path d="M36.0216 38.5601L36.1424 38.4918L42.4161 34.9435C43.0142 34.6051 43.4129 34.1947 43.6117 33.7605C43.4134 34.1947 43.0146 34.6056 42.4161 34.9441L36.1424 38.4923L36.0216 38.5601V38.5601ZM36.0232 38.3731L30.7271 33.1004L36.0227 27.8287L42.4161 31.4442C43.228 31.9034 43.6838 32.4952 43.7599 33.0999C43.7599 33.1004 43.7599 33.1015 43.7599 33.1024C43.6838 33.7057 43.228 34.298 42.4161 34.7571L36.0232 38.3731" fill="url(#paint1_linear_2_773)"/>
<path d="M15.976 49.5122C15.5322 49.5122 15.145 49.3686 14.843 49.0974L14.8435 49.0969C15.1455 49.3681 15.5332 49.5122 15.977 49.5122C16.0155 49.5122 16.0546 49.5112 16.0942 49.5093C16.0541 49.5112 16.0144 49.5122 15.976 49.5122V49.5122ZM15.9765 49.3252C15.5327 49.3257 15.1455 49.1816 14.8435 48.9104V48.91L30.7282 33.0984L36.0243 38.371L17.4129 48.897C16.898 49.1876 16.4101 49.3252 15.9765 49.3252V49.3252ZM14.839 49.094C14.811 49.0686 14.7834 49.0416 14.7563 49.0137L14.839 49.094Z" fill="url(#paint2_linear_2_773)"/>
<path d="M30.7299 33.0981L14.8438 17.2855C15.1457 17.0148 15.5324 16.8712 15.9757 16.8712C16.4105 16.8712 16.8987 17.0093 17.4147 17.3004L36.0255 27.8264L30.7299 33.0981V33.0981ZM36.1453 27.7073L17.4147 17.114C16.8987 16.8228 16.4105 16.6847 15.9757 16.6847C15.9736 16.6847 15.9722 16.6847 15.9702 16.6847C15.9727 16.6847 15.9746 16.6847 15.9777 16.6847C16.4115 16.6847 16.8992 16.8223 17.4147 17.1135L36.1453 27.7073V27.7073Z" fill="url(#paint3_linear_2_773)"/>
<path d="M16.0954 49.5103C16.4986 49.4873 16.9449 49.3492 17.4142 49.0845L36.024 38.559L17.4142 49.0845C16.9453 49.3497 16.4986 49.4873 16.0954 49.5103V49.5103ZM14.8443 49.0984L14.8403 49.0949C14.8417 49.096 14.8432 49.0974 14.8443 49.0984ZM14.7576 49.0147L14.7495 49.0068V49.0062C14.7526 49.0092 14.755 49.0121 14.7576 49.0147Z" fill="#07152A"/>
<path d="M36.0234 38.5601L36.1444 38.4918L36.0234 38.5601Z" fill="url(#paint4_linear_2_773)"/>
<path d="M15.9773 49.5132C15.5335 49.5132 15.1458 49.3691 14.8438 49.0979L14.8433 49.0984C14.8423 49.0974 14.8407 49.096 14.8393 49.0949L14.7566 49.0147C14.754 49.0121 14.7516 49.0092 14.7485 49.0062L14.8438 48.9114C15.1458 49.1826 15.533 49.3267 15.9768 49.3262C16.4104 49.3262 16.8983 49.1886 17.4132 48.898L36.0246 38.372L36.1438 38.4907L36.023 38.559L17.4132 49.0845C16.9439 49.3492 16.4976 49.4873 16.0945 49.5102C16.0548 49.5122 16.0157 49.5132 15.9773 49.5132" fill="url(#paint5_linear_2_773)"/>
<path d="M14.7472 49.0046C14.3735 48.6117 14.1528 48.0015 14.1528 47.2113V47.2108C14.1528 48.0015 14.3735 48.6112 14.7472 49.0041V49.0046" fill="#07152A"/>
<path d="M14.7462 49.0046C14.3731 48.6117 14.1528 48.002 14.1528 47.2113V47.0253C14.1528 47.8155 14.3731 48.4257 14.7462 48.8187L14.8415 48.9094L14.7462 49.0046" fill="url(#paint6_linear_2_773)"/>
<path d="M14.7485 49.0056L14.844 48.9104V48.9108L14.7485 49.0056" fill="url(#paint7_linear_2_773)"/>
<path d="M43.6133 33.7554C43.712 33.5399 43.7617 33.3186 43.7617 33.0972C43.7617 33.0968 43.7617 33.0963 43.7617 33.0963C43.7617 33.3181 43.712 33.5394 43.6133 33.7554Z" fill="#07152A"/>
<path d="M36.1446 38.4917L36.0254 38.373L42.4183 34.757C43.2302 34.2979 43.686 33.7056 43.7622 33.1023C43.7622 33.3237 43.7125 33.545 43.6139 33.7605C43.4151 34.1947 43.0164 34.605 42.4183 34.9435L36.1446 38.4917Z" fill="url(#paint8_linear_2_773)"/>
<path d="M43.7601 33.0981V33.0976C43.7596 32.43 43.3114 31.7625 42.4163 31.2559L36.1426 27.7077H36.1421L36.1426 27.7073L42.4163 31.2554C43.3124 31.762 43.7612 32.4305 43.7601 33.0981Z" fill="#07152A"/>
<path d="M43.7627 33.0952C43.6865 32.4905 43.2307 31.8987 42.4188 31.4395L36.0254 27.824L36.1446 27.7053H36.1451L42.4188 31.2535C43.3139 31.7601 43.7622 32.4276 43.7627 33.0952Z" fill="url(#paint9_linear_2_773)"/>
<path d="M14.1528 18.9792C14.1528 18.9787 14.1528 18.9782 14.1528 18.9777C14.1528 18.9782 14.1528 18.9787 14.1528 18.9792ZM14.1583 18.7718C14.1583 18.7708 14.1583 18.7698 14.1583 18.7688C14.1583 18.7698 14.1583 18.7708 14.1583 18.7718ZM14.1587 18.7659C14.1587 18.7638 14.1587 18.7619 14.1587 18.7599C14.1587 18.7619 14.1587 18.7638 14.1587 18.7659ZM14.1587 18.7583C14.233 17.4472 14.9492 16.6898 15.9624 16.6854C15.5231 16.6879 15.1405 16.8315 14.841 17.1002V17.0996L14.8374 17.1032C14.8059 17.1316 14.7759 17.1615 14.7462 17.1924C14.4097 17.5469 14.1973 18.0778 14.1587 18.7583Z" fill="#07152A"/>
<path d="M14.1528 19.1726V18.9861C14.1528 18.9836 14.1528 18.9815 14.1528 18.9791C14.1528 18.9786 14.1528 18.9781 14.1528 18.9776C14.1528 18.9073 14.1548 18.8385 14.1583 18.7717C14.1583 18.7707 14.1583 18.7697 14.1583 18.7687C14.1583 18.7678 14.1583 18.7667 14.1587 18.7657C14.1587 18.7637 14.1587 18.7618 14.1587 18.7597C14.1587 18.7592 14.1587 18.7587 14.1587 18.7582C14.1973 18.0777 14.4097 17.5467 14.7462 17.1923L14.84 17.286C14.4097 17.6724 14.1528 18.317 14.1528 19.1726V19.1726ZM14.8374 17.1031L14.841 17.0995C14.84 17.101 14.8384 17.1021 14.8374 17.1031Z" fill="url(#paint10_linear_2_773)"/>
<path d="M36.024 27.8252L17.4132 17.2992C16.8972 17.0081 16.409 16.87 15.9742 16.87C15.5309 16.87 15.1442 17.0136 14.8423 17.2843L14.7485 17.1906C14.7782 17.1597 14.8082 17.1297 14.8397 17.1014C14.8407 17.1003 14.8423 17.0993 14.8433 17.0983C15.1428 16.8296 15.5254 16.6861 15.9647 16.6835C15.9657 16.6835 15.9671 16.6835 15.9687 16.6835C15.9707 16.6835 15.9721 16.6835 15.9742 16.6835C16.409 16.6835 16.8972 16.8216 17.4132 17.1128L36.1438 27.7061L36.1433 27.7065L36.024 27.8252Z" fill="url(#paint11_linear_2_773)"/>
<rect x="0.5" y="0.5" width="165" height="66" rx="11.5" stroke="black"/>
<defs>
<linearGradient id="paint0_linear_2_773" x1="29.3175" y1="18.6899" x2="7.89828" y2="40.2081" gradientUnits="userSpaceOnUse">
<stop stop-color="#00A0FF"/>
<stop offset="0.00657445" stop-color="#00A1FF"/>
<stop offset="0.2601" stop-color="#00BEFF"/>
<stop offset="0.5122" stop-color="#00D2FF"/>
<stop offset="0.7604" stop-color="#00DFFF"/>
<stop offset="1" stop-color="#00E3FF"/>
</linearGradient>
<linearGradient id="paint1_linear_2_773" x1="44.7492" y1="33.1012" x2="13.7238" y2="33.1012" gradientUnits="userSpaceOnUse">
<stop stop-color="#FFE000"/>
<stop offset="0.4087" stop-color="#FFBD00"/>
<stop offset="0.7754" stop-color="#FFA500"/>
<stop offset="1" stop-color="#FF9C00"/>
</linearGradient>
<linearGradient id="paint2_linear_2_773" x1="33.201" y1="36.0279" x2="4.15497" y2="65.2082" gradientUnits="userSpaceOnUse">
<stop stop-color="#FF3A44"/>
<stop offset="1" stop-color="#C31162"/>
</linearGradient>
<linearGradient id="paint3_linear_2_773" x1="10.7262" y1="7.79605" x2="23.6965" y2="20.8262" gradientUnits="userSpaceOnUse">
<stop stop-color="#32A071"/>
<stop offset="0.0685" stop-color="#2DA771"/>
<stop offset="0.4762" stop-color="#15CF74"/>
<stop offset="0.8009" stop-color="#06E775"/>
<stop offset="1" stop-color="#00F076"/>
</linearGradient>
<linearGradient id="paint4_linear_2_773" x1="44.7646" y1="33.1012" x2="13.6909" y2="33.1012" gradientUnits="userSpaceOnUse">
<stop stop-color="#CCB300"/>
<stop offset="0.4087" stop-color="#CC9700"/>
<stop offset="0.7754" stop-color="#CC8400"/>
<stop offset="1" stop-color="#CC7D00"/>
</linearGradient>
<linearGradient id="paint5_linear_2_773" x1="33.2013" y1="36.0288" x2="4.15524" y2="65.2092" gradientUnits="userSpaceOnUse">
<stop stop-color="#CC2E36"/>
<stop offset="1" stop-color="#9C0E4E"/>
</linearGradient>
<linearGradient id="paint6_linear_2_773" x1="29.3175" y1="18.6869" x2="7.89823" y2="40.2051" gradientUnits="userSpaceOnUse">
<stop stop-color="#008DE0"/>
<stop offset="0.00657445" stop-color="#008DE0"/>
<stop offset="0.2601" stop-color="#00A7E0"/>
<stop offset="0.5122" stop-color="#00B8E0"/>
<stop offset="0.7604" stop-color="#00C4E0"/>
<stop offset="1" stop-color="#00C7E0"/>
</linearGradient>
<linearGradient id="paint7_linear_2_773" x1="33.2308" y1="36.0273" x2="4.18298" y2="65.2541" gradientUnits="userSpaceOnUse">
<stop stop-color="#E0333C"/>
<stop offset="1" stop-color="#AB0F56"/>
</linearGradient>
<linearGradient id="paint8_linear_2_773" x1="44.7514" y1="33.1011" x2="13.7261" y2="33.1011" gradientUnits="userSpaceOnUse">
<stop stop-color="#E0C500"/>
<stop offset="0.4087" stop-color="#E0A600"/>
<stop offset="0.7754" stop-color="#E09100"/>
<stop offset="1" stop-color="#E08900"/>
</linearGradient>
<linearGradient id="paint9_linear_2_773" x1="44.7519" y1="33.0965" x2="13.7266" y2="33.0965" gradientUnits="userSpaceOnUse">
<stop stop-color="#FFE840"/>
<stop offset="0.4087" stop-color="#FFCE40"/>
<stop offset="0.7754" stop-color="#FFBC40"/>
<stop offset="1" stop-color="#FFB540"/>
</linearGradient>
<linearGradient id="paint10_linear_2_773" x1="29.3175" y1="18.6879" x2="7.89831" y2="40.2062" gradientUnits="userSpaceOnUse">
<stop stop-color="#40B8FF"/>
<stop offset="0.00657445" stop-color="#40B9FF"/>
<stop offset="0.2601" stop-color="#40CEFF"/>
<stop offset="0.5122" stop-color="#40DDFF"/>
<stop offset="0.7604" stop-color="#40E7FF"/>
<stop offset="1" stop-color="#40EAFF"/>
</linearGradient>
<linearGradient id="paint11_linear_2_773" x1="10.7247" y1="7.79485" x2="23.695" y2="20.8251" gradientUnits="userSpaceOnUse">
<stop stop-color="#65B895"/>
<stop offset="0.0685" stop-color="#62BD95"/>
<stop offset="0.4762" stop-color="#50DB97"/>
<stop offset="0.8009" stop-color="#44ED98"/>
<stop offset="1" stop-color="#40F498"/>
</linearGradient>
</defs>
</svg>
