<svg width="40" height="40" viewBox="0 0 40 40" fill="none" xmlns="http://www.w3.org/2000/svg">
<path d="M10.6222 32.3279L10.5478 32.2571C10.2565 31.9508 10.0845 31.475 10.0845 30.859V31.004V8.99803C10.0845 8.99604 10.0845 8.99454 10.0845 8.99295C10.0845 8.99484 10.0845 8.99644 10.0845 8.99842V9.1438C10.0845 8.47673 10.285 7.97425 10.621 7.67295L23.0255 20.0008L10.6222 32.3279ZM10.0845 8.99176C10.0845 8.93693 10.086 8.8837 10.0888 8.83126C10.086 8.8833 10.0845 8.93693 10.0845 8.99176ZM10.0888 8.82887C10.0888 8.82818 10.0888 8.82738 10.0891 8.82659C10.0888 8.82738 10.0888 8.82818 10.0888 8.82887ZM10.0891 8.82191C10.0891 8.82151 10.0891 8.82111 10.0891 8.82071C10.0891 8.82111 10.0891 8.82151 10.0891 8.82191Z" fill="url(#paint0_linear_32_508)"/>
<path d="M27.1601 24.2576L27.2544 24.2043L32.1531 21.4381C32.6201 21.1742 32.9314 20.8543 33.0867 20.5158C32.9318 20.8543 32.6204 21.1746 32.1531 21.4385L27.2544 24.2047L27.1601 24.2576ZM27.1613 24.1118L23.0259 20.0012L27.1609 15.8912L32.1531 18.7099C32.787 19.0679 33.143 19.5293 33.2024 20.0008C33.2024 20.0012 33.2024 20.0019 33.2024 20.0026C33.143 20.473 32.787 20.9348 32.1531 21.2927L27.1613 24.1118Z" fill="url(#paint1_linear_32_508)"/>
<path d="M11.5065 32.7974C11.16 32.7974 10.8577 32.6854 10.6219 32.474L10.6223 32.4736C10.8581 32.685 11.1608 32.7974 11.5073 32.7974C11.5374 32.7974 11.5679 32.7966 11.5988 32.7951C11.5675 32.7966 11.5366 32.7974 11.5065 32.7974ZM11.5069 32.6516C11.1604 32.652 10.8581 32.5397 10.6223 32.3282V32.3279L23.0256 20.0008L27.161 24.1115L12.6286 32.3178C12.2265 32.5443 11.8455 32.6516 11.5069 32.6516ZM10.6188 32.4713C10.5969 32.4515 10.5753 32.4305 10.5542 32.4087L10.6188 32.4713Z" fill="url(#paint2_linear_32_508)"/>
<path d="M23.0256 20.001L10.6211 7.67312C10.8569 7.46207 11.1588 7.35013 11.5049 7.35013C11.8444 7.35013 12.2257 7.4578 12.6286 7.68476L27.1606 15.891L23.0256 20.001ZM27.2541 15.7982L12.6286 7.53948C12.2257 7.31242 11.8444 7.20476 11.5049 7.20476C11.5033 7.20476 11.5022 7.20476 11.5006 7.20476C11.5026 7.20476 11.5041 7.20476 11.5065 7.20476C11.8452 7.20476 12.2261 7.31202 12.6286 7.53909L27.2541 15.7982Z" fill="url(#paint3_linear_32_508)"/>
<path d="M11.5988 32.7944C11.9136 32.7765 12.2621 32.6689 12.6285 32.4625L27.1597 24.2566L12.6285 32.4625C12.2624 32.6693 11.9136 32.7765 11.5988 32.7944ZM10.6218 32.4733L10.6187 32.4707C10.6198 32.4714 10.621 32.4725 10.6218 32.4733ZM10.5542 32.4081L10.5479 32.4019V32.4015C10.5503 32.4038 10.5522 32.4061 10.5542 32.4081Z" fill="black"/>
<path d="M27.1597 24.2576L27.2533 24.2043L27.1597 24.2576Z" fill="url(#paint4_linear_32_508)"/>
<path d="M11.5073 32.7974C11.1608 32.7974 10.858 32.685 10.6222 32.4736L10.6218 32.474C10.621 32.4732 10.6198 32.4721 10.6187 32.4713L10.5542 32.4087C10.5522 32.4067 10.5503 32.4044 10.5479 32.4021L10.6222 32.3282C10.858 32.5397 11.1604 32.652 11.5069 32.6516C11.8455 32.6516 12.2264 32.5443 12.6285 32.3178L27.1609 24.1115L27.254 24.204L27.1597 24.2573L12.6285 32.4631C12.2621 32.6695 11.9136 32.7772 11.5988 32.7951C11.5679 32.7966 11.5373 32.7974 11.5073 32.7974Z" fill="url(#paint5_linear_32_508)"/>
<path d="M10.5478 32.4026C10.2565 32.0962 10.0845 31.6205 10.0845 31.0045V31.0041C10.0845 31.6205 10.2565 32.0958 10.5478 32.4022V32.4026Z" fill="black"/>
<path d="M10.5478 32.4026C10.2565 32.0962 10.0845 31.6209 10.0845 31.0045V30.8595C10.0845 31.4755 10.2565 31.9512 10.5478 32.2576L10.6222 32.3284L10.5478 32.4026Z" fill="url(#paint6_linear_32_508)"/>
<path d="M10.5479 32.4026L10.6217 32.3284V32.3287L10.5479 32.4026Z" fill="url(#paint7_linear_32_508)"/>
<path d="M33.0864 20.5159C33.1628 20.3479 33.2013 20.1754 33.2013 20.0027C33.2013 20.0024 33.2013 20.002 33.2013 20.002C33.2013 20.175 33.1628 20.3475 33.0864 20.5159Z" fill="black"/>
<path d="M27.2542 24.2041L27.1611 24.1116L32.1529 21.2925C32.7869 20.9345 33.1428 20.4728 33.2023 20.0024C33.2023 20.175 33.1635 20.3476 33.0865 20.5155C32.9313 20.854 32.62 21.1739 32.1529 21.4378L27.2542 24.2041Z" fill="url(#paint8_linear_32_508)"/>
<path d="M33.2019 20.001V20.0006C33.2015 19.4801 32.8515 18.9597 32.1525 18.5648L27.2538 15.7985H27.2534L27.2538 15.7982L32.1525 18.5644C32.8523 18.9593 33.2027 19.4805 33.2019 20.001Z" fill="#404040"/>
<path d="M33.2027 20.0005C33.1432 19.529 32.7873 19.0677 32.1533 18.7096L27.1611 15.8909L27.2542 15.7984H27.2546L32.1533 18.5647C32.8523 18.9596 33.2023 19.48 33.2027 20.0005Z" fill="url(#paint9_linear_32_508)"/>
<path d="M10.0845 8.99316C10.0845 8.99277 10.0845 8.99237 10.0845 8.99197C10.0845 8.99237 10.0845 8.99277 10.0845 8.99316ZM10.0888 8.83147C10.0888 8.83068 10.0888 8.82988 10.0888 8.82909C10.0888 8.82988 10.0888 8.83068 10.0888 8.83147ZM10.0891 8.8268C10.0891 8.8252 10.0891 8.82371 10.0891 8.82212C10.0891 8.82371 10.0891 8.8252 10.0891 8.8268ZM10.0891 8.82093C10.147 7.79874 10.7063 7.20829 11.4974 7.20481C11.1544 7.2068 10.8557 7.31874 10.6218 7.52819V7.52779L10.619 7.53058C10.5944 7.55267 10.5709 7.57605 10.5478 7.60013C10.285 7.87645 10.1192 8.29038 10.0891 8.82093Z" fill="#404040"/>
<path d="M10.0845 9.14429V8.99891C10.0845 8.99692 10.0845 8.99533 10.0845 8.99344C10.0845 8.99304 10.0845 8.99265 10.0845 8.99225C10.0845 8.93742 10.086 8.88379 10.0888 8.83175C10.0888 8.83095 10.0888 8.83016 10.0888 8.82936C10.0888 8.82867 10.0888 8.82787 10.0891 8.82707C10.0891 8.82548 10.0891 8.82399 10.0891 8.8224C10.0891 8.822 10.0891 8.8216 10.0891 8.8212C10.1192 8.29066 10.285 7.87672 10.5478 7.60041L10.621 7.67344C10.285 7.97474 10.0845 8.47722 10.0845 9.14429ZM10.619 7.53085L10.6218 7.52807C10.621 7.52926 10.6198 7.53006 10.619 7.53085Z" fill="url(#paint10_linear_32_508)"/>
<path d="M27.1605 15.8909L12.6285 7.6846C12.2256 7.45763 11.8444 7.34997 11.5049 7.34997C11.1588 7.34997 10.8568 7.46191 10.621 7.67296L10.5479 7.59992C10.571 7.57584 10.5944 7.55246 10.619 7.53037C10.6198 7.52957 10.621 7.52878 10.6218 7.52798C10.8557 7.31853 11.1545 7.20659 11.4975 7.2046C11.4983 7.2046 11.4994 7.2046 11.5006 7.2046C11.5022 7.2046 11.5033 7.2046 11.5049 7.2046C11.8444 7.2046 12.2256 7.31226 12.6285 7.53932L27.254 15.798L27.2536 15.7983L27.1605 15.8909Z" fill="url(#paint11_linear_32_508)"/>
<defs>
<linearGradient id="paint0_linear_32_508" x1="21.9256" y1="8.76589" x2="5.22691" y2="25.568" gradientUnits="userSpaceOnUse">
<stop stop-color="#00A0FF"/>
<stop offset="0.00657445" stop-color="#00A1FF"/>
<stop offset="0.2601" stop-color="#00BEFF"/>
<stop offset="0.5122" stop-color="#00D2FF"/>
<stop offset="0.7604" stop-color="#00DFFF"/>
<stop offset="1" stop-color="#00E3FF"/>
</linearGradient>
<linearGradient id="paint1_linear_32_508" x1="33.9748" y1="20.0017" x2="9.74915" y2="20.0017" gradientUnits="userSpaceOnUse">
<stop stop-color="#FFE000"/>
<stop offset="0.4087" stop-color="#FFBD00"/>
<stop offset="0.7754" stop-color="#FFA500"/>
<stop offset="1" stop-color="#FF9C00"/>
</linearGradient>
<linearGradient id="paint2_linear_32_508" x1="24.9565" y1="22.2847" x2="2.31181" y2="45.0696" gradientUnits="userSpaceOnUse">
<stop stop-color="#FF3A44"/>
<stop offset="1" stop-color="#C31162"/>
</linearGradient>
<linearGradient id="paint3_linear_32_508" x1="7.40599" y1="0.275008" x2="17.5177" y2="10.4494" gradientUnits="userSpaceOnUse">
<stop stop-color="#32A071"/>
<stop offset="0.0685" stop-color="#2DA771"/>
<stop offset="0.4762" stop-color="#15CF74"/>
<stop offset="0.8009" stop-color="#06E775"/>
<stop offset="1" stop-color="#00F076"/>
</linearGradient>
<linearGradient id="paint4_linear_32_508" x1="33.9219" y1="20.0019" x2="9.88308" y2="20.0019" gradientUnits="userSpaceOnUse">
<stop stop-color="#CCB300"/>
<stop offset="0.4087" stop-color="#CC9700"/>
<stop offset="0.7754" stop-color="#CC8400"/>
<stop offset="1" stop-color="#CC7D00"/>
</linearGradient>
<linearGradient id="paint5_linear_32_508" x1="24.9564" y1="22.2847" x2="2.31178" y2="45.0696" gradientUnits="userSpaceOnUse">
<stop stop-color="#CC2E36"/>
<stop offset="1" stop-color="#9C0E4E"/>
</linearGradient>
<linearGradient id="paint6_linear_32_508" x1="21.9256" y1="8.76642" x2="5.22699" y2="25.5686" gradientUnits="userSpaceOnUse">
<stop stop-color="#008DE0"/>
<stop offset="0.00657445" stop-color="#008DE0"/>
<stop offset="0.2601" stop-color="#00A7E0"/>
<stop offset="0.5122" stop-color="#00B8E0"/>
<stop offset="0.7604" stop-color="#00C4E0"/>
<stop offset="1" stop-color="#00C7E0"/>
</linearGradient>
<linearGradient id="paint7_linear_32_508" x1="24.846" y1="22.285" x2="2.20058" y2="44.8957" gradientUnits="userSpaceOnUse">
<stop stop-color="#E0333C"/>
<stop offset="1" stop-color="#AB0F56"/>
</linearGradient>
<linearGradient id="paint8_linear_32_508" x1="33.9747" y1="20.0015" x2="9.74902" y2="20.0015" gradientUnits="userSpaceOnUse">
<stop stop-color="#E0C500"/>
<stop offset="0.4087" stop-color="#E0A600"/>
<stop offset="0.7754" stop-color="#E09100"/>
<stop offset="1" stop-color="#E08900"/>
</linearGradient>
<linearGradient id="paint9_linear_32_508" x1="33.9751" y1="20.0015" x2="9.74943" y2="20.0015" gradientUnits="userSpaceOnUse">
<stop stop-color="#FFE840"/>
<stop offset="0.4087" stop-color="#FFCE40"/>
<stop offset="0.7754" stop-color="#FFBC40"/>
<stop offset="1" stop-color="#FFB540"/>
</linearGradient>
<linearGradient id="paint10_linear_32_508" x1="21.9256" y1="8.76638" x2="5.22695" y2="25.5685" gradientUnits="userSpaceOnUse">
<stop stop-color="#40B8FF"/>
<stop offset="0.00657445" stop-color="#40B9FF"/>
<stop offset="0.2601" stop-color="#40CEFF"/>
<stop offset="0.5122" stop-color="#40DDFF"/>
<stop offset="0.7604" stop-color="#40E7FF"/>
<stop offset="1" stop-color="#40EAFF"/>
</linearGradient>
<linearGradient id="paint11_linear_32_508" x1="7.40593" y1="0.274847" x2="17.5177" y2="10.4492" gradientUnits="userSpaceOnUse">
<stop stop-color="#65B895"/>
<stop offset="0.0685" stop-color="#62BD95"/>
<stop offset="0.4762" stop-color="#50DB97"/>
<stop offset="0.8009" stop-color="#44ED98"/>
<stop offset="1" stop-color="#40F498"/>
</linearGradient>
</defs>
</svg>
