<svg width="325" height="101" viewBox="0 0 325 101" fill="none" xmlns="http://www.w3.org/2000/svg">
<path d="M4.6 24L18.424 6.304V24H21.368V1.28H18.808L4.984 18.944V1.28H2.008V24H4.6ZM27.5757 24H30.3277V17.088H39.0638V24H41.8158V8H39.0638V14.592H30.3277V8H27.5757V24ZM47.6532 24H55.3972C59.4612 24 61.1572 21.856 61.1572 19.36C61.1572 17.696 60.3252 16.32 58.5332 15.456C59.6532 14.592 60.1012 13.6 60.1012 12.352C60.1012 9.76 58.2452 8 54.6292 8H47.6532V24ZM50.4052 21.6V16.832H55.5572C57.2212 16.832 58.3412 17.664 58.3412 19.2C58.3412 20.736 57.2212 21.6 55.5572 21.6H50.4052ZM50.4052 14.624V10.368H54.8532C56.1012 10.368 57.3172 10.88 57.3172 12.48C57.3172 14.112 56.1012 14.624 54.8532 14.624H50.4052ZM72.5467 24.32C76.6107 24.32 79.2667 21.952 80.0347 19.136H77.2187C76.2267 21.056 74.5947 21.824 72.5787 21.824C69.6667 21.824 67.3627 19.648 67.2667 16.736H80.2907C80.6427 11.776 77.6667 7.68 72.6107 7.68C67.5867 7.68 64.4827 11.296 64.4827 16C64.4827 20.768 67.8747 24.32 72.5467 24.32ZM72.5147 10.112C74.9147 10.112 76.8667 11.584 77.3787 14.56H67.3947C67.9067 11.424 70.2427 10.112 72.5147 10.112ZM92.006 24.32C96.07 24.32 99.142 21.824 100.07 18.368H97.126C96.39 20.416 94.534 21.792 92.006 21.792C88.678 21.792 86.438 19.232 86.438 16C86.438 12.768 88.678 10.208 92.006 10.208C94.534 10.208 96.39 11.584 97.126 13.632H100.07C99.11 10.176 96.07 7.68 92.006 7.68C87.142 7.68 83.654 11.424 83.654 16C83.654 20.576 87.142 24.32 92.006 24.32ZM107.332 24H110.084V10.528H115.396V8H102.244V10.528H107.332V24ZM121.646 24L130.67 12.256V24H133.39V8H130.958L121.934 19.744V8H119.182V24H121.646ZM142.011 30.688V21.536C143.067 23.072 145.211 24.32 147.643 24.32C152.123 24.32 155.483 20.576 155.483 16C155.483 11.424 152.123 7.68 147.643 7.68C145.211 7.68 143.067 8.928 142.011 10.464V8H139.259V30.688H142.011ZM147.227 21.792C144.027 21.792 141.787 19.232 141.787 16C141.787 12.768 144.027 10.208 147.227 10.208C150.427 10.208 152.667 12.768 152.667 16C152.667 19.232 150.427 21.792 147.227 21.792ZM174.526 8H171.454L166.014 20.064L160.478 8H157.438L164.51 23.264L163.198 26.08C162.334 28 161.438 28.512 160.318 28.512C159.646 28.512 159.23 28.512 158.75 28.416V30.848C159.23 30.976 159.774 31.008 160.542 31.008C163.006 31.008 164.542 29.792 165.854 26.848L174.526 8ZM180.41 24L189.434 12.256V24H192.154V8H189.722L180.698 19.744V8H177.946V24H180.41ZM185.306 5.504C188.122 5.504 190.394 3.52 190.394 0.415998V-1.90735e-06H188.218V0.415998C188.218 2.56 186.938 3.648 185.306 3.648C183.674 3.648 182.394 2.56 182.394 0.415998V-1.90735e-06H180.218V0.415998C180.218 3.52 182.49 5.504 185.306 5.504ZM201.063 24H203.815V10.528H209.127V8H195.975V10.528H201.063V24ZM219.26 24.32C223.324 24.32 225.98 21.952 226.748 19.136H223.932C222.94 21.056 221.308 21.824 219.292 21.824C216.38 21.824 214.076 19.648 213.98 16.736H227.004C227.356 11.776 224.38 7.68 219.324 7.68C214.3 7.68 211.196 11.296 211.196 16C211.196 20.768 214.588 24.32 219.26 24.32ZM219.228 10.112C221.628 10.112 223.58 11.584 224.092 14.56H214.108C214.62 11.424 216.956 10.112 219.228 10.112ZM239.495 24.224C241.927 24.224 243.783 22.592 243.783 19.168V10.528H250.631V24H253.383V8H241.031V18.592C241.031 21.024 240.327 21.728 239.079 21.728C238.727 21.728 238.407 21.76 238.055 21.664V24.128C238.407 24.224 238.951 24.224 239.495 24.224ZM266.055 24.32C270.119 24.32 272.775 21.952 273.543 19.136H270.727C269.735 21.056 268.103 21.824 266.087 21.824C263.175 21.824 260.871 19.648 260.775 16.736H273.799C274.151 11.776 271.175 7.68 266.119 7.68C261.095 7.68 257.991 11.296 257.991 16C257.991 20.768 261.383 24.32 266.055 24.32ZM266.023 10.112C268.423 10.112 270.375 11.584 270.887 14.56H260.903C261.415 11.424 263.751 10.112 266.023 10.112ZM278.411 24H281.163V10.528H288.427V8H278.411V24ZM302.959 24H306.735L297.711 15.84L305.551 8H302.063L294.959 15.104V8H292.207V24H294.959V16.864L302.959 24ZM315.826 24.32C320.626 24.32 324.178 20.608 324.178 16C324.178 11.392 320.626 7.68 315.826 7.68C310.962 7.68 307.442 11.392 307.442 16C307.442 20.608 310.962 24.32 315.826 24.32ZM315.826 21.76C312.498 21.76 310.258 19.2 310.258 16C310.258 12.8 312.498 10.24 315.826 10.24C319.154 10.24 321.362 12.8 321.362 16C321.362 19.2 319.154 21.76 315.826 21.76ZM0.216 87.968H5.752V93.472H8.248V87.968H13.752V85.504H8.248V80H5.752V85.504H0.216V87.968ZM24.408 96.32C28.824 96.32 32.12 93.12 32.12 89.12C32.12 84.64 29.144 81.28 24.888 81.28C23.192 81.28 21.816 81.824 20.92 82.464L22.168 75.968H30.584V73.28H19.96L17.624 85.408L20.248 86.176C21.112 84.8 22.584 83.872 24.536 83.872C27.352 83.872 29.304 86.048 29.304 88.768C29.304 91.456 27.224 93.632 24.408 93.632C21.976 93.632 20.12 92.032 19.608 89.856H16.792C16.888 93.344 20.312 96.32 24.408 96.32ZM38.6075 96H41.3595V73.28H36.4635L34.2235 76H38.6075V96ZM51.0297 95.296C51.2857 94.88 51.4777 94.4 51.4777 93.856C51.4777 92.576 50.4217 91.456 49.1097 91.456C47.7977 91.456 46.7417 92.576 46.7417 93.856C46.7417 94.848 47.2857 95.616 48.0537 96L45.9097 100.576H47.7337L51.0297 95.296ZM56.0843 96H59.6043L67.9243 86.176C69.3323 84.512 70.4843 82.784 70.4843 80.384C70.4843 76.256 67.1883 72.896 62.7723 72.896C58.3243 72.896 55.0923 76.256 55.0923 80.48C55.0923 84.416 58.3883 87.776 62.1963 87.776C62.4843 87.776 62.7403 87.776 63.0923 87.744L56.0843 96ZM62.7723 85.344C59.9883 85.344 57.9083 83.136 57.9083 80.448C57.9083 77.76 59.9883 75.552 62.7723 75.552C65.5883 75.552 67.6683 77.76 67.6683 80.448C67.6683 83.136 65.5883 85.344 62.7723 85.344ZM82.3752 96L96.7752 73.28H93.7992L79.3992 96H82.3752ZM96.6152 96.256C100.071 96.256 102.919 93.408 102.919 89.952C102.919 86.464 100.071 83.648 96.6152 83.648C93.1272 83.648 90.3112 86.464 90.3112 89.952C90.3112 93.408 93.1272 96.256 96.6152 96.256ZM96.6152 93.76C94.4712 93.76 92.8392 92 92.8392 89.952C92.8392 87.904 94.4712 86.144 96.6152 86.144C98.6632 86.144 100.391 87.904 100.391 89.952C100.391 92 98.6632 93.76 96.6152 93.76ZM79.5592 85.632C83.0152 85.632 85.8632 82.784 85.8632 79.328C85.8632 75.84 83.0152 73.024 79.5592 73.024C76.0712 73.024 73.2552 75.84 73.2552 79.328C73.2552 82.784 76.0712 85.632 79.5592 85.632ZM79.5592 83.136C77.4152 83.136 75.7832 81.376 75.7832 79.328C75.7832 77.28 77.4152 75.52 79.5592 75.52C81.6072 75.52 83.3352 77.28 83.3352 79.328C83.3352 81.376 81.6072 83.136 79.5592 83.136Z" fill="#0962E8"/>
<path d="M4.056 60L13.08 48.256V60H15.8V44H13.368L4.344 55.744V44H1.592V60H4.056ZM30.0283 60H32.7803V46.528H41.1643V60H43.9163V44H30.0283V60ZM56.8347 60.32C61.6347 60.32 65.1867 56.608 65.1867 52C65.1867 47.392 61.6347 43.68 56.8347 43.68C51.9707 43.68 48.4507 47.392 48.4507 52C48.4507 56.608 51.9707 60.32 56.8347 60.32ZM56.8347 57.76C53.5067 57.76 51.2667 55.2 51.2667 52C51.2667 48.8 53.5067 46.24 56.8347 46.24C60.1627 46.24 62.3707 48.8 62.3707 52C62.3707 55.2 60.1627 57.76 56.8347 57.76ZM69.047 60.224C71.479 60.224 73.335 58.592 73.335 55.168V46.528H80.183V60H82.935V44H70.583V54.592C70.583 57.024 69.879 57.728 68.631 57.728C68.279 57.728 67.959 57.76 67.607 57.664V60.128C67.959 60.224 68.503 60.224 69.047 60.224ZM103.544 44H100.472L95.032 56.064L89.496 44H86.456L93.528 59.264L92.216 62.08C91.352 64 90.456 64.512 89.336 64.512C88.664 64.512 88.248 64.512 87.768 64.416V66.848C88.248 66.976 88.792 67.008 89.56 67.008C92.024 67.008 93.56 65.792 94.872 62.848L103.544 44ZM119.155 60V44H116.403V47.84C116.403 50.848 114.067 52.192 112.147 52.192C110.003 52.192 108.403 51.296 108.403 48.544V44H105.651V48.832C105.651 52.64 108.019 54.688 111.507 54.688C113.683 54.688 115.539 53.856 116.403 52.544V60H119.155ZM131.57 60.32C134.002 60.32 136.146 59.072 137.202 57.536V60H139.954V44H137.202V46.464C136.146 44.928 134.002 43.68 131.57 43.68C127.09 43.68 123.73 47.424 123.73 52C123.73 56.576 127.09 60.32 131.57 60.32ZM131.986 57.792C128.754 57.792 126.514 55.232 126.514 52C126.514 48.768 128.754 46.208 131.986 46.208C135.186 46.208 137.426 48.768 137.426 52C137.426 55.232 135.186 57.792 131.986 57.792ZM148.238 60L157.262 48.256V60H159.982V44H157.55L148.526 55.744V44H145.774V60H148.238ZM153.134 41.504C155.95 41.504 158.222 39.52 158.222 36.416V36H156.046V36.416C156.046 38.56 154.766 39.648 153.134 39.648C151.502 39.648 150.222 38.56 150.222 36.416V36H148.046V36.416C148.046 39.52 150.318 41.504 153.134 41.504ZM168.892 60H171.644V46.528H176.956V44H163.804V46.528H168.892V60ZM187.089 60.32C191.153 60.32 193.809 57.952 194.577 55.136H191.761C190.769 57.056 189.137 57.824 187.121 57.824C184.209 57.824 181.905 55.648 181.809 52.736H194.833C195.185 47.776 192.209 43.68 187.153 43.68C182.129 43.68 179.025 47.296 179.025 52C179.025 56.768 182.417 60.32 187.089 60.32ZM187.057 46.112C189.457 46.112 191.409 47.584 191.921 50.56H181.937C182.449 47.424 184.785 46.112 187.057 46.112ZM206.267 57.472V64.032H208.859V60H221.467V64.032H224.059V57.472H221.659V44H208.955V52.288C208.955 56.608 207.835 57.472 206.651 57.472H206.267ZM211.707 46.528H218.907V57.472H210.715C211.323 56.416 211.707 55.392 211.707 52.736V46.528ZM235.235 60.32C240.035 60.32 243.587 56.608 243.587 52C243.587 47.392 240.035 43.68 235.235 43.68C230.371 43.68 226.851 47.392 226.851 52C226.851 56.608 230.371 60.32 235.235 60.32ZM235.235 57.76C231.907 57.76 229.667 55.2 229.667 52C229.667 48.8 231.907 46.24 235.235 46.24C238.563 46.24 240.771 48.8 240.771 52C240.771 55.2 238.563 57.76 235.235 57.76ZM258.335 60H261.727L255.167 51.904L261.215 44H257.855L253.471 49.792L249.055 44H245.727L251.743 51.904L245.183 60H248.607L253.471 53.952L258.335 60ZM271.702 60.32C276.502 60.32 280.054 56.608 280.054 52C280.054 47.392 276.502 43.68 271.702 43.68C266.838 43.68 263.318 47.392 263.318 52C263.318 56.608 266.838 60.32 271.702 60.32ZM271.702 57.76C268.374 57.76 266.134 55.2 266.134 52C266.134 48.8 268.374 46.24 271.702 46.24C275.03 46.24 277.238 48.8 277.238 52C277.238 55.2 275.03 57.76 271.702 57.76ZM282.827 57.472V64.032H285.419V60H298.027V64.032H300.619V57.472H298.219V44H285.515V52.288C285.515 56.608 284.395 57.472 283.211 57.472H282.827ZM288.267 46.528H295.467V57.472H287.275C287.883 56.416 288.267 55.392 288.267 52.736V46.528ZM115.541 96H118.293V82.528H125.557V80H115.541V96ZM135.941 96.32C140.741 96.32 144.293 92.608 144.293 88C144.293 83.392 140.741 79.68 135.941 79.68C131.077 79.68 127.557 83.392 127.557 88C127.557 92.608 131.077 96.32 135.941 96.32ZM135.941 93.76C132.613 93.76 130.373 91.2 130.373 88C130.373 84.8 132.613 82.24 135.941 82.24C139.269 82.24 141.477 84.8 141.477 88C141.477 91.2 139.269 93.76 135.941 93.76ZM147.066 93.472V100.032H149.658V96H162.266V100.032H164.858V93.472H162.458V80H149.754V88.288C149.754 92.608 148.634 93.472 147.45 93.472H147.066ZM152.506 82.528H159.706V93.472H151.514C152.122 92.416 152.506 91.392 152.506 88.736V82.528ZM176.033 96.32C180.833 96.32 184.385 92.608 184.385 88C184.385 83.392 180.833 79.68 176.033 79.68C171.169 79.68 167.649 83.392 167.649 88C167.649 92.608 171.169 96.32 176.033 96.32ZM176.033 93.76C172.705 93.76 170.465 91.2 170.465 88C170.465 84.8 172.705 82.24 176.033 82.24C179.361 82.24 181.569 84.8 181.569 88C181.569 91.2 179.361 93.76 176.033 93.76ZM188.976 96H196.72C200.784 96 202.48 93.856 202.48 91.36C202.48 89.696 201.648 88.32 199.856 87.456C200.976 86.592 201.424 85.6 201.424 84.352C201.424 81.76 199.568 80 195.952 80H188.976V96ZM191.728 93.6V88.832H196.88C198.544 88.832 199.664 89.664 199.664 91.2C199.664 92.736 198.544 93.6 196.88 93.6H191.728ZM191.728 86.624V82.368H196.176C197.424 82.368 198.64 82.88 198.64 84.48C198.64 86.112 197.424 86.624 196.176 86.624H191.728ZM221.837 96H224.589V80H221.837V96ZM207.053 96H213.485C217.613 96 219.373 93.376 219.373 90.848C219.373 88.384 217.645 85.76 213.517 85.76H209.805V80H207.053V96ZM209.805 88.256H213.421C215.469 88.256 216.621 89.184 216.621 90.848C216.621 92.512 215.437 93.504 213.389 93.504H209.805V88.256ZM241.195 96H244.587L238.027 87.904L244.075 80H240.715L236.331 85.792L231.915 80H228.587L234.603 87.904L228.043 96H231.467L236.331 89.952L241.195 96Z" fill="#002A66"/>
<path d="M4.6 24V25H5.08777L5.38805 24.6156L4.6 24ZM18.424 6.304H19.424V3.39952L17.636 5.68838L18.424 6.304ZM18.424 24H17.424V25H18.424V24ZM21.368 24V25H22.368V24H21.368ZM21.368 1.28H22.368V0.279999H21.368V1.28ZM18.808 1.28V0.279999H18.3208L18.0205 0.663691L18.808 1.28ZM4.984 18.944H3.984V21.8443L5.77151 19.5603L4.984 18.944ZM4.984 1.28H5.984V0.279999H4.984V1.28ZM2.008 1.28V0.279999H1.008V1.28H2.008ZM2.008 24H1.008V25H2.008V24ZM5.38805 24.6156L19.212 6.91962L17.636 5.68838L3.81195 23.3844L5.38805 24.6156ZM17.424 6.304V24H19.424V6.304H17.424ZM18.424 25H21.368V23H18.424V25ZM22.368 24V1.28H20.368V24H22.368ZM21.368 0.279999H18.808V2.28H21.368V0.279999ZM18.0205 0.663691L4.1965 18.3277L5.77151 19.5603L19.5955 1.89631L18.0205 0.663691ZM5.984 18.944V1.28H3.984V18.944H5.984ZM4.984 0.279999H2.008V2.28H4.984V0.279999ZM1.008 1.28V24H3.008V1.28H1.008ZM2.008 25H4.6V23H2.008V25ZM27.5757 24H26.5757V25H27.5757V24ZM30.3277 24V25H31.3277V24H30.3277ZM30.3277 17.088V16.088H29.3277V17.088H30.3277ZM39.0638 17.088H40.0638V16.088H39.0638V17.088ZM39.0638 24H38.0638V25H39.0638V24ZM41.8158 24V25H42.8158V24H41.8158ZM41.8158 8H42.8158V7H41.8158V8ZM39.0638 8V7H38.0638V8H39.0638ZM39.0638 14.592V15.592H40.0638V14.592H39.0638ZM30.3277 14.592H29.3277V15.592H30.3277V14.592ZM30.3277 8H31.3277V7H30.3277V8ZM27.5757 8V7H26.5757V8H27.5757ZM27.5757 25H30.3277V23H27.5757V25ZM31.3277 24V17.088H29.3277V24H31.3277ZM30.3277 18.088H39.0638V16.088H30.3277V18.088ZM38.0638 17.088V24H40.0638V17.088H38.0638ZM39.0638 25H41.8158V23H39.0638V25ZM42.8158 24V8H40.8158V24H42.8158ZM41.8158 7H39.0638V9H41.8158V7ZM38.0638 8V14.592H40.0638V8H38.0638ZM39.0638 13.592H30.3277V15.592H39.0638V13.592ZM31.3277 14.592V8H29.3277V14.592H31.3277ZM30.3277 7H27.5757V9H30.3277V7ZM26.5757 8V24H28.5757V8H26.5757ZM47.6532 24H46.6532V25H47.6532V24ZM58.5332 15.456L57.9224 14.6642L56.6401 15.6534L58.099 16.3568L58.5332 15.456ZM47.6532 8V7H46.6532V8H47.6532ZM50.4052 21.6H49.4052V22.6H50.4052V21.6ZM50.4052 16.832V15.832H49.4052V16.832H50.4052ZM50.4052 14.624H49.4052V15.624H50.4052V14.624ZM50.4052 10.368V9.368H49.4052V10.368H50.4052ZM47.6532 25H55.3972V23H47.6532V25ZM55.3972 25C57.5994 25 59.3071 24.4176 60.4742 23.3557C61.6489 22.2869 62.1572 20.8395 62.1572 19.36H60.1572C60.1572 20.3765 59.8176 21.2491 59.1283 21.8763C58.4314 22.5104 57.2591 23 55.3972 23V25ZM62.1572 19.36C62.1572 17.2829 61.0784 15.5729 58.9675 14.5552L58.099 16.3568C59.5721 17.0671 60.1572 18.1091 60.1572 19.36H62.1572ZM59.1441 16.2478C60.5089 15.1949 61.1012 13.9108 61.1012 12.352H59.1012C59.1012 13.2892 58.7976 13.9891 57.9224 14.6642L59.1441 16.2478ZM61.1012 12.352C61.1012 10.8006 60.5355 9.41498 59.3618 8.43605C58.2106 7.47589 56.5873 7 54.6292 7V9C56.2872 9 57.3999 9.40411 58.0807 9.97195C58.739 10.521 59.1012 11.3114 59.1012 12.352H61.1012ZM54.6292 7H47.6532V9H54.6292V7ZM46.6532 8V24H48.6532V8H46.6532ZM51.4052 21.6V16.832H49.4052V21.6H51.4052ZM50.4052 17.832H55.5572V15.832H50.4052V17.832ZM55.5572 17.832C56.2355 17.832 56.682 18.0024 56.9393 18.2134C57.1701 18.4025 57.3412 18.697 57.3412 19.2H59.3412C59.3412 18.167 58.9524 17.2775 58.2072 16.6666C57.4885 16.0775 56.543 15.832 55.5572 15.832V17.832ZM57.3412 19.2C57.3412 19.7046 57.1685 20.0109 56.9318 20.2088C56.6723 20.4258 56.227 20.6 55.5572 20.6V22.6C56.5515 22.6 57.4982 22.3422 58.2147 21.7432C58.954 21.1251 59.3412 20.2314 59.3412 19.2H57.3412ZM55.5572 20.6H50.4052V22.6H55.5572V20.6ZM51.4052 14.624V10.368H49.4052V14.624H51.4052ZM50.4052 11.368H54.8532V9.368H50.4052V11.368ZM54.8532 11.368C55.3654 11.368 55.7466 11.477 55.9727 11.6382C56.1445 11.7607 56.3172 11.9713 56.3172 12.48H58.3172C58.3172 11.3887 57.882 10.5433 57.1338 10.0098C56.4399 9.51501 55.5891 9.368 54.8532 9.368V11.368ZM56.3172 12.48C56.3172 13.0122 56.1386 13.23 55.968 13.3531C55.7438 13.515 55.3656 13.624 54.8532 13.624V15.624C55.5889 15.624 56.4427 15.477 57.1385 14.9749C57.8879 14.434 58.3172 13.5798 58.3172 12.48H56.3172ZM54.8532 13.624H50.4052V15.624H54.8532V13.624ZM80.0347 19.136L80.9995 19.3991L81.344 18.136H80.0347V19.136ZM77.2187 19.136V18.136H76.6098L76.3303 18.677L77.2187 19.136ZM67.2667 16.736V15.736H66.2332L66.2673 16.7689L67.2667 16.736ZM80.2907 16.736V17.736H81.2223L81.2882 16.8068L80.2907 16.736ZM77.3787 14.56V15.56H78.5655L78.3643 14.3904L77.3787 14.56ZM67.3947 14.56L66.4078 14.3989L66.2182 15.56H67.3947V14.56ZM72.5467 25.32C77.0409 25.32 80.1075 22.6699 80.9995 19.3991L79.07 18.8729C78.426 21.2341 76.1806 23.32 72.5467 23.32V25.32ZM80.0347 18.136H77.2187V20.136H80.0347V18.136ZM76.3303 18.677C75.9164 19.4782 75.3943 19.9968 74.8001 20.3242C74.1979 20.656 73.4615 20.824 72.5787 20.824V22.824C73.712 22.824 74.7996 22.608 75.7654 22.0758C76.7392 21.5392 77.5291 20.7138 78.1072 19.595L76.3303 18.677ZM72.5787 20.824C70.1928 20.824 68.344 19.0626 68.2662 16.7031L66.2673 16.7689C66.3815 20.2334 69.1406 22.824 72.5787 22.824V20.824ZM67.2667 17.736H80.2907V15.736H67.2667V17.736ZM81.2882 16.8068C81.4793 14.114 80.771 11.5887 79.2557 9.71847C77.7278 7.83263 75.4306 6.68 72.6107 6.68V8.68C74.8469 8.68 76.5657 9.57537 77.7018 10.9775C78.8505 12.3953 79.4542 14.398 79.2933 16.6652L81.2882 16.8068ZM72.6107 6.68C69.8463 6.68 67.5429 7.6815 65.9345 9.3907C64.3333 11.0922 63.4827 13.4284 63.4827 16H65.4827C65.4827 13.8676 66.1842 12.0438 67.391 10.7613C68.5906 9.4865 70.3512 8.68 72.6107 8.68V6.68ZM63.4827 16C63.4827 21.2864 67.2891 25.32 72.5467 25.32V23.32C68.4604 23.32 65.4827 20.2496 65.4827 16H63.4827ZM72.5147 11.112C73.5056 11.112 74.3516 11.4127 74.999 11.975C75.647 12.5378 76.1691 13.4267 76.3932 14.7296L78.3643 14.3904C78.0764 12.7173 77.3665 11.3822 76.3105 10.465C75.2539 9.54733 73.9239 9.112 72.5147 9.112V11.112ZM77.3787 13.56H67.3947V15.56H77.3787V13.56ZM68.3817 14.7211C68.5998 13.385 69.1888 12.5055 69.9061 11.9514C70.6372 11.3865 71.5651 11.112 72.5147 11.112V9.112C71.1924 9.112 69.8163 9.49346 68.6834 10.3686C67.5367 11.2545 66.7017 12.599 66.4078 14.3989L68.3817 14.7211ZM100.07 18.368L101.036 18.6273L101.374 17.368H100.07V18.368ZM97.126 18.368V17.368H96.4228L96.1849 18.0298L97.126 18.368ZM97.126 13.632L96.1849 13.9702L96.4228 14.632H97.126V13.632ZM100.07 13.632V14.632H101.386L101.034 13.3644L100.07 13.632ZM92.006 25.32C96.5136 25.32 99.9882 22.5287 101.036 18.6273L99.1042 18.1087C98.2958 21.1193 95.6264 23.32 92.006 23.32V25.32ZM100.07 17.368H97.126V19.368H100.07V17.368ZM96.1849 18.0298C95.5972 19.6652 94.1289 20.792 92.006 20.792V22.792C94.9391 22.792 97.1828 21.1668 98.0671 18.7062L96.1849 18.0298ZM92.006 20.792C89.2927 20.792 87.438 18.7442 87.438 16H85.438C85.438 19.7198 88.0633 22.792 92.006 22.792V20.792ZM87.438 16C87.438 13.2558 89.2927 11.208 92.006 11.208V9.208C88.0633 9.208 85.438 12.2802 85.438 16H87.438ZM92.006 11.208C94.1289 11.208 95.5972 12.3348 96.1849 13.9702L98.0671 13.2938C97.1828 10.8332 94.9391 9.208 92.006 9.208V11.208ZM97.126 14.632H100.07V12.632H97.126V14.632ZM101.034 13.3644C99.9535 9.47627 96.52 6.68 92.006 6.68V8.68C95.62 8.68 98.2665 10.8757 99.1065 13.8996L101.034 13.3644ZM92.006 6.68C86.5721 6.68 82.654 10.8895 82.654 16H84.654C84.654 11.9585 87.7119 8.68 92.006 8.68V6.68ZM82.654 16C82.654 21.1105 86.5721 25.32 92.006 25.32V23.32C87.7119 23.32 84.654 20.0415 84.654 16H82.654ZM107.332 24H106.332V25H107.332V24ZM110.084 24V25H111.084V24H110.084ZM110.084 10.528V9.528H109.084V10.528H110.084ZM115.396 10.528V11.528H116.396V10.528H115.396ZM115.396 8H116.396V7H115.396V8ZM102.244 8V7H101.244V8H102.244ZM102.244 10.528H101.244V11.528H102.244V10.528ZM107.332 10.528H108.332V9.528H107.332V10.528ZM107.332 25H110.084V23H107.332V25ZM111.084 24V10.528H109.084V24H111.084ZM110.084 11.528H115.396V9.528H110.084V11.528ZM116.396 10.528V8H114.396V10.528H116.396ZM115.396 7H102.244V9H115.396V7ZM101.244 8V10.528H103.244V8H101.244ZM102.244 11.528H107.332V9.528H102.244V11.528ZM106.332 10.528V24H108.332V10.528H106.332ZM121.646 24V25H122.139L122.439 24.6093L121.646 24ZM130.67 12.256H131.67V9.31333L129.877 11.6467L130.67 12.256ZM130.67 24H129.67V25H130.67V24ZM133.39 24V25H134.39V24H133.39ZM133.39 8H134.39V7H133.39V8ZM130.958 8V7H130.465L130.165 7.39071L130.958 8ZM121.934 19.744H120.934V22.6867L122.727 20.3533L121.934 19.744ZM121.934 8H122.934V7H121.934V8ZM119.182 8V7H118.182V8H119.182ZM119.182 24H118.182V25H119.182V24ZM122.439 24.6093L131.463 12.8653L129.877 11.6467L120.853 23.3907L122.439 24.6093ZM129.67 12.256V24H131.67V12.256H129.67ZM130.67 25H133.39V23H130.67V25ZM134.39 24V8H132.39V24H134.39ZM133.39 7H130.958V9H133.39V7ZM130.165 7.39071L121.141 19.1347L122.727 20.3533L131.751 8.60929L130.165 7.39071ZM122.934 19.744V8H120.934V19.744H122.934ZM121.934 7H119.182V9H121.934V7ZM118.182 8V24H120.182V8H118.182ZM119.182 25H121.646V23H119.182V25ZM142.011 30.688V31.688H143.011V30.688H142.011ZM142.011 21.536L142.836 20.9695L141.011 18.3163V21.536H142.011ZM142.011 10.464H141.011V13.6837L142.836 11.0305L142.011 10.464ZM142.011 8H143.011V7H142.011V8ZM139.259 8V7H138.259V8H139.259ZM139.259 30.688H138.259V31.688H139.259V30.688ZM143.011 30.688V21.536H141.011V30.688H143.011ZM141.187 22.1025C142.435 23.9172 144.891 25.32 147.643 25.32V23.32C145.532 23.32 143.7 22.2268 142.836 20.9695L141.187 22.1025ZM147.643 25.32C152.744 25.32 156.483 21.057 156.483 16H154.483C154.483 20.095 151.503 23.32 147.643 23.32V25.32ZM156.483 16C156.483 10.943 152.744 6.68 147.643 6.68V8.68C151.503 8.68 154.483 11.905 154.483 16H156.483ZM147.643 6.68C144.891 6.68 142.435 8.08283 141.187 9.89747L142.836 11.0305C143.7 9.77317 145.532 8.68 147.643 8.68V6.68ZM143.011 10.464V8H141.011V10.464H143.011ZM142.011 7H139.259V9H142.011V7ZM138.259 8V30.688H140.259V8H138.259ZM139.259 31.688H142.011V29.688H139.259V31.688ZM147.227 20.792C144.657 20.792 142.787 18.7603 142.787 16H140.787C140.787 19.7037 143.398 22.792 147.227 22.792V20.792ZM142.787 16C142.787 13.2397 144.657 11.208 147.227 11.208V9.208C143.398 9.208 140.787 12.2963 140.787 16H142.787ZM147.227 11.208C149.798 11.208 151.667 13.2397 151.667 16H153.667C153.667 12.2963 151.057 9.208 147.227 9.208V11.208ZM151.667 16C151.667 18.7603 149.798 20.792 147.227 20.792V22.792C151.057 22.792 153.667 19.7037 153.667 16H151.667ZM174.526 8L175.435 8.41798L176.087 7H174.526V8ZM171.454 8V7H170.808L170.543 7.58893L171.454 8ZM166.014 20.064L165.106 20.4811L166.022 22.479L166.926 20.4751L166.014 20.064ZM160.478 8L161.387 7.58293L161.12 7H160.478V8ZM157.438 8V7H155.873L156.531 8.42038L157.438 8ZM164.51 23.264L165.417 23.6863L165.613 23.2652L165.418 22.8436L164.51 23.264ZM163.198 26.08L162.292 25.6576L162.287 25.6696L163.198 26.08ZM158.75 28.416L158.947 27.4354L157.75 27.1962V28.416H158.75ZM158.75 30.848H157.75V31.6163L158.493 31.8142L158.75 30.848ZM165.854 26.848L164.946 26.43L164.941 26.4409L165.854 26.848ZM174.526 7H171.454V9H174.526V7ZM170.543 7.58893L165.103 19.6529L166.926 20.4751L172.366 8.41107L170.543 7.58893ZM166.923 19.6469L161.387 7.58293L159.57 8.41707L165.106 20.4811L166.923 19.6469ZM160.478 7H157.438V9H160.478V7ZM156.531 8.42038L163.603 23.6844L165.418 22.8436L158.346 7.57962L156.531 8.42038ZM163.604 22.8417L162.292 25.6577L164.105 26.5023L165.417 23.6863L163.604 22.8417ZM162.287 25.6696C161.888 26.5565 161.531 27.0001 161.24 27.2274C160.98 27.4302 160.706 27.512 160.318 27.512V29.512C161.051 29.512 161.785 29.3378 162.469 28.8046C163.122 28.2959 163.645 27.5235 164.11 26.4904L162.287 25.6696ZM160.318 27.512C159.628 27.512 159.313 27.5086 158.947 27.4354L158.554 29.3966C159.148 29.5154 159.665 29.512 160.318 29.512V27.512ZM157.75 28.416V30.848H159.75V28.416H157.75ZM158.493 31.8142C159.108 31.9783 159.764 32.008 160.542 32.008V30.008C159.785 30.008 159.353 29.9737 159.008 29.8818L158.493 31.8142ZM160.542 32.008C161.955 32.008 163.185 31.6533 164.248 30.8186C165.285 30.0047 166.08 28.7994 166.768 27.2551L164.941 26.4409C164.317 27.8406 163.688 28.7153 163.013 29.2454C162.364 29.7547 161.594 30.008 160.542 30.008V32.008ZM166.763 27.266L175.435 8.41798L173.618 7.58202L164.946 26.43L166.763 27.266ZM180.41 24V25H180.902L181.203 24.6093L180.41 24ZM189.434 12.256H190.434V9.31333L188.641 11.6467L189.434 12.256ZM189.434 24H188.434V25H189.434V24ZM192.154 24V25H193.154V24H192.154ZM192.154 8H193.154V7H192.154V8ZM189.722 8V7H189.229L188.929 7.39071L189.722 8ZM180.698 19.744H179.698V22.6867L181.491 20.3533L180.698 19.744ZM180.698 8H181.698V7H180.698V8ZM177.946 8V7H176.946V8H177.946ZM177.946 24H176.946V25H177.946V24ZM190.394 -1.90735e-06H191.394V-1H190.394V-1.90735e-06ZM188.218 -1.90735e-06V-1H187.218V-1.90735e-06H188.218ZM182.394 -1.90735e-06H183.394V-1H182.394V-1.90735e-06ZM180.218 -1.90735e-06V-1H179.218V-1.90735e-06H180.218ZM181.203 24.6093L190.227 12.8653L188.641 11.6467L179.617 23.3907L181.203 24.6093ZM188.434 12.256V24H190.434V12.256H188.434ZM189.434 25H192.154V23H189.434V25ZM193.154 24V8H191.154V24H193.154ZM192.154 7H189.722V9H192.154V7ZM188.929 7.39071L179.905 19.1347L181.491 20.3533L190.515 8.60929L188.929 7.39071ZM181.698 19.744V8H179.698V19.744H181.698ZM180.698 7H177.946V9H180.698V7ZM176.946 8V24H178.946V8H176.946ZM177.946 25H180.41V23H177.946V25ZM185.306 6.504C188.636 6.504 191.394 4.10953 191.394 0.415998H189.394C189.394 2.93047 187.607 4.504 185.306 4.504V6.504ZM191.394 0.415998V-1.90735e-06H189.394V0.415998H191.394ZM190.394 -1H188.218V0.999998H190.394V-1ZM187.218 -1.90735e-06V0.415998H189.218V-1.90735e-06H187.218ZM187.218 0.415998C187.218 1.28694 186.962 1.82462 186.656 2.1396C186.35 2.45512 185.897 2.648 185.306 2.648V4.648C186.347 4.648 187.35 4.29688 188.091 3.53239C188.834 2.76738 189.218 1.68906 189.218 0.415998H187.218ZM185.306 2.648C184.715 2.648 184.262 2.45512 183.955 2.1396C183.65 1.82462 183.394 1.28694 183.394 0.415998H181.394C181.394 1.68906 181.778 2.76738 182.52 3.53239C183.262 4.29688 184.265 4.648 185.306 4.648V2.648ZM183.394 0.415998V-1.90735e-06H181.394V0.415998H183.394ZM182.394 -1H180.218V0.999998H182.394V-1ZM179.218 -1.90735e-06V0.415998H181.218V-1.90735e-06H179.218ZM179.218 0.415998C179.218 4.10953 181.975 6.504 185.306 6.504V4.504C183.004 4.504 181.218 2.93047 181.218 0.415998H179.218ZM201.063 24H200.063V25H201.063V24ZM203.815 24V25H204.815V24H203.815ZM203.815 10.528V9.528H202.815V10.528H203.815ZM209.127 10.528V11.528H210.127V10.528H209.127ZM209.127 8H210.127V7H209.127V8ZM195.975 8V7H194.975V8H195.975ZM195.975 10.528H194.975V11.528H195.975V10.528ZM201.063 10.528H202.063V9.528H201.063V10.528ZM201.063 25H203.815V23H201.063V25ZM204.815 24V10.528H202.815V24H204.815ZM203.815 11.528H209.127V9.528H203.815V11.528ZM210.127 10.528V8H208.127V10.528H210.127ZM209.127 7H195.975V9H209.127V7ZM194.975 8V10.528H196.975V8H194.975ZM195.975 11.528H201.063V9.528H195.975V11.528ZM200.063 10.528V24H202.063V10.528H200.063ZM226.748 19.136L227.713 19.3991L228.058 18.136H226.748V19.136ZM223.932 19.136V18.136H223.324L223.044 18.677L223.932 19.136ZM213.98 16.736V15.736H212.947L212.981 16.7689L213.98 16.736ZM227.004 16.736V17.736H227.936L228.002 16.8068L227.004 16.736ZM224.092 14.56V15.56H225.279L225.078 14.3904L224.092 14.56ZM214.108 14.56L213.122 14.3989L212.932 15.56H214.108V14.56ZM219.26 25.32C223.755 25.32 226.821 22.6699 227.713 19.3991L225.784 18.8729C225.14 21.2341 222.894 23.32 219.26 23.32V25.32ZM226.748 18.136H223.932V20.136H226.748V18.136ZM223.044 18.677C222.63 19.4782 222.108 19.9968 221.514 20.3242C220.912 20.656 220.175 20.824 219.292 20.824V22.824C220.426 22.824 221.513 22.608 222.479 22.0758C223.453 21.5392 224.243 20.7138 224.821 19.595L223.044 18.677ZM219.292 20.824C216.907 20.824 215.058 19.0626 214.98 16.7031L212.981 16.7689C213.095 20.2334 215.854 22.824 219.292 22.824V20.824ZM213.98 17.736H227.004V15.736H213.98V17.736ZM228.002 16.8068C228.193 14.114 227.485 11.5887 225.969 9.71847C224.442 7.83263 222.144 6.68 219.324 6.68V8.68C221.561 8.68 223.279 9.57537 224.416 10.9775C225.564 12.3953 226.168 14.398 226.007 16.6652L228.002 16.8068ZM219.324 6.68C216.56 6.68 214.257 7.6815 212.648 9.3907C211.047 11.0922 210.196 13.4284 210.196 16H212.196C212.196 13.8676 212.898 12.0438 214.105 10.7613C215.304 9.4865 217.065 8.68 219.324 8.68V6.68ZM210.196 16C210.196 21.2864 214.003 25.32 219.26 25.32V23.32C215.174 23.32 212.196 20.2496 212.196 16H210.196ZM219.228 11.112C220.219 11.112 221.065 11.4127 221.713 11.975C222.361 12.5378 222.883 13.4267 223.107 14.7296L225.078 14.3904C224.79 12.7173 224.08 11.3822 223.024 10.465C221.968 9.54733 220.638 9.112 219.228 9.112V11.112ZM224.092 13.56H214.108V15.56H224.092V13.56ZM215.095 14.7211C215.314 13.385 215.903 12.5055 216.62 11.9514C217.351 11.3865 218.279 11.112 219.228 11.112V9.112C217.906 9.112 216.53 9.49346 215.397 10.3686C214.25 11.2545 213.415 12.599 213.122 14.3989L215.095 14.7211ZM243.783 10.528V9.528H242.783V10.528H243.783ZM250.631 10.528H251.631V9.528H250.631V10.528ZM250.631 24H249.631V25H250.631V24ZM253.383 24V25H254.383V24H253.383ZM253.383 8H254.383V7H253.383V8ZM241.031 8V7H240.031V8H241.031ZM238.055 21.664L238.318 20.6992L237.055 20.3547V21.664H238.055ZM238.055 24.128H237.055V24.8918L237.791 25.0928L238.055 24.128ZM239.495 25.224C240.94 25.224 242.298 24.7329 243.287 23.6565C244.269 22.5876 244.783 21.056 244.783 19.168H242.783C242.783 20.704 242.368 21.7004 241.814 22.3035C241.267 22.8991 240.481 23.224 239.495 23.224V25.224ZM244.783 19.168V10.528H242.783V19.168H244.783ZM243.783 11.528H250.631V9.528H243.783V11.528ZM249.631 10.528V24H251.631V10.528H249.631ZM250.631 25H253.383V23H250.631V25ZM254.383 24V8H252.383V24H254.383ZM253.383 7H241.031V9H253.383V7ZM240.031 8V18.592H242.031V8H240.031ZM240.031 18.592C240.031 19.7592 239.852 20.2835 239.7 20.5031C239.615 20.6257 239.497 20.728 239.079 20.728V22.728C239.908 22.728 240.766 22.4783 241.345 21.6409C241.857 20.9005 242.031 19.8568 242.031 18.592H240.031ZM239.079 20.728C238.609 20.728 238.5 20.749 238.318 20.6992L237.791 22.6288C238.313 22.771 238.844 22.728 239.079 22.728V20.728ZM237.055 21.664V24.128H239.055V21.664H237.055ZM237.791 25.0928C238.304 25.2326 239.012 25.224 239.495 25.224V23.224C238.889 23.224 238.509 23.2154 238.318 23.1632L237.791 25.0928ZM273.543 19.136L274.508 19.3991L274.853 18.136H273.543V19.136ZM270.727 19.136V18.136H270.119L269.839 18.677L270.727 19.136ZM260.775 16.736V15.736H259.742L259.776 16.7689L260.775 16.736ZM273.799 16.736V17.736H274.731L274.797 16.8068L273.799 16.736ZM270.887 14.56V15.56H272.074L271.873 14.3904L270.887 14.56ZM260.903 14.56L259.917 14.3989L259.727 15.56H260.903V14.56ZM266.055 25.32C270.55 25.32 273.616 22.6699 274.508 19.3991L272.579 18.8729C271.935 21.2341 269.689 23.32 266.055 23.32V25.32ZM273.543 18.136H270.727V20.136H273.543V18.136ZM269.839 18.677C269.425 19.4782 268.903 19.9968 268.309 20.3242C267.707 20.656 266.97 20.824 266.087 20.824V22.824C267.221 22.824 268.308 22.608 269.274 22.0758C270.248 21.5392 271.038 20.7138 271.616 19.595L269.839 18.677ZM266.087 20.824C263.702 20.824 261.853 19.0626 261.775 16.7031L259.776 16.7689C259.89 20.2334 262.649 22.824 266.087 22.824V20.824ZM260.775 17.736H273.799V15.736H260.775V17.736ZM274.797 16.8068C274.988 14.114 274.28 11.5887 272.764 9.71847C271.237 7.83263 268.939 6.68 266.119 6.68V8.68C268.356 8.68 270.074 9.57537 271.211 10.9775C272.359 12.3953 272.963 14.398 272.802 16.6652L274.797 16.8068ZM266.119 6.68C263.355 6.68 261.052 7.6815 259.443 9.3907C257.842 11.0922 256.991 13.4284 256.991 16H258.991C258.991 13.8676 259.693 12.0438 260.9 10.7613C262.099 9.4865 263.86 8.68 266.119 8.68V6.68ZM256.991 16C256.991 21.2864 260.798 25.32 266.055 25.32V23.32C261.969 23.32 258.991 20.2496 258.991 16H256.991ZM266.023 11.112C267.014 11.112 267.86 11.4127 268.508 11.975C269.156 12.5378 269.678 13.4267 269.902 14.7296L271.873 14.3904C271.585 12.7173 270.875 11.3822 269.819 10.465C268.763 9.54733 267.433 9.112 266.023 9.112V11.112ZM270.887 13.56H260.903V15.56H270.887V13.56ZM261.89 14.7211C262.109 13.385 262.698 12.5055 263.415 11.9514C264.146 11.3865 265.074 11.112 266.023 11.112V9.112C264.701 9.112 263.325 9.49346 262.192 10.3686C261.045 11.2545 260.21 12.599 259.917 14.3989L261.89 14.7211ZM278.411 24H277.411V25H278.411V24ZM281.163 24V25H282.163V24H281.163ZM281.163 10.528V9.528H280.163V10.528H281.163ZM288.427 10.528V11.528H289.427V10.528H288.427ZM288.427 8H289.427V7H288.427V8ZM278.411 8V7H277.411V8H278.411ZM278.411 25H281.163V23H278.411V25ZM282.163 24V10.528H280.163V24H282.163ZM281.163 11.528H288.427V9.528H281.163V11.528ZM289.427 10.528V8H287.427V10.528H289.427ZM288.427 7H278.411V9H288.427V7ZM277.411 8V24H279.411V8H277.411ZM302.959 24L302.293 24.7463L302.578 25H302.959V24ZM306.735 24V25H309.332L307.406 23.2583L306.735 24ZM297.711 15.84L297.004 15.1329L296.26 15.8764L297.04 16.5817L297.711 15.84ZM305.551 8L306.258 8.70711L307.965 7H305.551V8ZM302.063 8V7H301.649L301.356 7.29289L302.063 8ZM294.959 15.104H293.959V17.5182L295.666 15.8111L294.959 15.104ZM294.959 8H295.959V7H294.959V8ZM292.207 8V7H291.207V8H292.207ZM292.207 24H291.207V25H292.207V24ZM294.959 24V25H295.959V24H294.959ZM294.959 16.864L295.625 16.1177L293.959 14.632V16.864H294.959ZM302.959 25H306.735V23H302.959V25ZM307.406 23.2583L298.382 15.0983L297.04 16.5817L306.064 24.7417L307.406 23.2583ZM298.418 16.5471L306.258 8.70711L304.844 7.29289L297.004 15.1329L298.418 16.5471ZM305.551 7H302.063V9H305.551V7ZM301.356 7.29289L294.252 14.3969L295.666 15.8111L302.77 8.70711L301.356 7.29289ZM295.959 15.104V8H293.959V15.104H295.959ZM294.959 7H292.207V9H294.959V7ZM291.207 8V24H293.207V8H291.207ZM292.207 25H294.959V23H292.207V25ZM295.959 24V16.864H293.959V24H295.959ZM294.293 17.6103L302.293 24.7463L303.625 23.2537L295.625 16.1177L294.293 17.6103ZM315.826 25.32C321.188 25.32 325.178 21.1502 325.178 16H323.178C323.178 20.0658 320.064 23.32 315.826 23.32V25.32ZM325.178 16C325.178 10.8498 321.188 6.68 315.826 6.68V8.68C320.064 8.68 323.178 11.9342 323.178 16H325.178ZM315.826 6.68C310.4 6.68 306.442 10.8498 306.442 16H308.442C308.442 11.9342 311.524 8.68 315.826 8.68V6.68ZM306.442 16C306.442 21.1502 310.4 25.32 315.826 25.32V23.32C311.524 23.32 308.442 20.0658 308.442 16H306.442ZM315.826 20.76C313.109 20.76 311.258 18.7085 311.258 16H309.258C309.258 19.6915 311.887 22.76 315.826 22.76V20.76ZM311.258 16C311.258 13.2915 313.109 11.24 315.826 11.24V9.24C311.887 9.24 309.258 12.3085 309.258 16H311.258ZM315.826 11.24C318.535 11.24 320.362 13.2835 320.362 16H322.362C322.362 12.3165 319.773 9.24 315.826 9.24V11.24ZM320.362 16C320.362 18.7165 318.535 20.76 315.826 20.76V22.76C319.773 22.76 322.362 19.6835 322.362 16H320.362ZM4.056 60V61H4.54873L4.84895 60.6093L4.056 60ZM13.08 48.256H14.08V45.3133L12.2871 47.6467L13.08 48.256ZM13.08 60H12.08V61H13.08V60ZM15.8 60V61H16.8V60H15.8ZM15.8 44H16.8V43H15.8V44ZM13.368 44V43H12.8753L12.5751 43.3907L13.368 44ZM4.344 55.744H3.344V58.6867L5.13695 56.3533L4.344 55.744ZM4.344 44H5.344V43H4.344V44ZM1.592 44V43H0.592V44H1.592ZM1.592 60H0.592V61H1.592V60ZM4.84895 60.6093L13.8729 48.8653L12.2871 47.6467L3.26306 59.3907L4.84895 60.6093ZM12.08 48.256V60H14.08V48.256H12.08ZM13.08 61H15.8V59H13.08V61ZM16.8 60V44H14.8V60H16.8ZM15.8 43H13.368V45H15.8V43ZM12.5751 43.3907L3.55106 55.1347L5.13695 56.3533L14.1609 44.6093L12.5751 43.3907ZM5.344 55.744V44H3.344V55.744H5.344ZM4.344 43H1.592V45H4.344V43ZM0.592 44V60H2.592V44H0.592ZM1.592 61H4.056V59H1.592V61ZM30.0283 60H29.0283V61H30.0283V60ZM32.7803 60V61H33.7803V60H32.7803ZM32.7803 46.528V45.528H31.7803V46.528H32.7803ZM41.1643 46.528H42.1643V45.528H41.1643V46.528ZM41.1643 60H40.1643V61H41.1643V60ZM43.9163 60V61H44.9163V60H43.9163ZM43.9163 44H44.9163V43H43.9163V44ZM30.0283 44V43H29.0283V44H30.0283ZM30.0283 61H32.7803V59H30.0283V61ZM33.7803 60V46.528H31.7803V60H33.7803ZM32.7803 47.528H41.1643V45.528H32.7803V47.528ZM40.1643 46.528V60H42.1643V46.528H40.1643ZM41.1643 61H43.9163V59H41.1643V61ZM44.9163 60V44H42.9163V60H44.9163ZM43.9163 43H30.0283V45H43.9163V43ZM29.0283 44V60H31.0283V44H29.0283ZM56.8347 61.32C62.1971 61.32 66.1867 57.1502 66.1867 52H64.1867C64.1867 56.0658 61.0724 59.32 56.8347 59.32V61.32ZM66.1867 52C66.1867 46.8498 62.1971 42.68 56.8347 42.68V44.68C61.0724 44.68 64.1867 47.9342 64.1867 52H66.1867ZM56.8347 42.68C51.4084 42.68 47.4507 46.8498 47.4507 52H49.4507C49.4507 47.9342 52.5331 44.68 56.8347 44.68V42.68ZM47.4507 52C47.4507 57.1502 51.4084 61.32 56.8347 61.32V59.32C52.5331 59.32 49.4507 56.0658 49.4507 52H47.4507ZM56.8347 56.76C54.1179 56.76 52.2667 54.7085 52.2667 52H50.2667C50.2667 55.6915 52.8956 58.76 56.8347 58.76V56.76ZM52.2667 52C52.2667 49.2915 54.1179 47.24 56.8347 47.24V45.24C52.8956 45.24 50.2667 48.3085 50.2667 52H52.2667ZM56.8347 47.24C59.5441 47.24 61.3707 49.2835 61.3707 52H63.3707C63.3707 48.3165 60.7814 45.24 56.8347 45.24V47.24ZM61.3707 52C61.3707 54.7165 59.5441 56.76 56.8347 56.76V58.76C60.7814 58.76 63.3707 55.6835 63.3707 52H61.3707ZM73.335 46.528V45.528H72.335V46.528H73.335ZM80.183 46.528H81.183V45.528H80.183V46.528ZM80.183 60H79.183V61H80.183V60ZM82.935 60V61H83.935V60H82.935ZM82.935 44H83.935V43H82.935V44ZM70.583 44V43H69.583V44H70.583ZM67.607 57.664L67.8701 56.6992L66.607 56.3547V57.664H67.607ZM67.607 60.128H66.607V60.8918L67.3439 61.0928L67.607 60.128ZM69.047 61.224C70.4927 61.224 71.8506 60.7329 72.8394 59.6565C73.8214 58.5876 74.335 57.056 74.335 55.168H72.335C72.335 56.704 71.9206 57.7004 71.3666 58.3035C70.8194 58.8991 70.0333 59.224 69.047 59.224V61.224ZM74.335 55.168V46.528H72.335V55.168H74.335ZM73.335 47.528H80.183V45.528H73.335V47.528ZM79.183 46.528V60H81.183V46.528H79.183ZM80.183 61H82.935V59H80.183V61ZM83.935 60V44H81.935V60H83.935ZM82.935 43H70.583V45H82.935V43ZM69.583 44V54.592H71.583V44H69.583ZM69.583 54.592C69.583 55.7592 69.4045 56.2835 69.2526 56.5031C69.1678 56.6257 69.0496 56.728 68.631 56.728V58.728C69.4604 58.728 70.3182 58.4783 70.8974 57.6409C71.4095 56.9005 71.583 55.8568 71.583 54.592H69.583ZM68.631 56.728C68.1611 56.728 68.0526 56.749 67.8701 56.6992L67.3439 58.6288C67.8654 58.771 68.3969 58.728 68.631 58.728V56.728ZM66.607 57.664V60.128H68.607V57.664H66.607ZM67.3439 61.0928C67.8567 61.2326 68.5641 61.224 69.047 61.224V59.224C68.4419 59.224 68.0613 59.2154 67.8701 59.1632L67.3439 61.0928ZM103.544 44L104.452 44.418L105.105 43H103.544V44ZM100.472 44V43H99.826L99.5604 43.5889L100.472 44ZM95.032 56.064L94.1231 56.4811L95.04 58.479L95.9436 56.4751L95.032 56.064ZM89.496 44L90.4049 43.5829L90.1374 43H89.496V44ZM86.456 44V43H84.8906L85.5487 44.4204L86.456 44ZM93.528 59.264L94.4344 59.6863L94.6307 59.2652L94.4353 58.8436L93.528 59.264ZM92.216 62.08L91.3095 61.6576L91.3041 61.6696L92.216 62.08ZM87.768 64.416L87.9641 63.4354L86.768 63.1962V64.416H87.768ZM87.768 66.848H86.768V67.6163L87.5103 67.8142L87.768 66.848ZM94.872 62.848L93.9635 62.43L93.9586 62.4409L94.872 62.848ZM103.544 43H100.472V45H103.544V43ZM99.5604 43.5889L94.1204 55.6529L95.9436 56.4751L101.384 44.4111L99.5604 43.5889ZM95.9409 55.6469L90.4049 43.5829L88.5871 44.4171L94.1231 56.4811L95.9409 55.6469ZM89.496 43H86.456V45H89.496V43ZM85.5487 44.4204L92.6207 59.6844L94.4353 58.8436L87.3633 43.5796L85.5487 44.4204ZM92.6216 58.8417L91.3096 61.6577L93.1224 62.5023L94.4344 59.6863L92.6216 58.8417ZM91.3041 61.6696C90.905 62.5565 90.5486 63.0001 90.2571 63.2274C89.997 63.4302 89.7239 63.512 89.336 63.512V65.512C90.0681 65.512 90.803 65.3378 91.4869 64.8046C92.1394 64.2959 92.663 63.5235 93.1279 62.4904L91.3041 61.6696ZM89.336 63.512C88.6453 63.512 88.3302 63.5086 87.9641 63.4354L87.5719 65.3966C88.1658 65.5154 88.6827 65.512 89.336 65.512V63.512ZM86.768 64.416V66.848H88.768V64.416H86.768ZM87.5103 67.8142C88.1256 67.9783 88.7819 68.008 89.56 68.008V66.008C88.8021 66.008 88.3704 65.9737 88.0257 65.8818L87.5103 67.8142ZM89.56 68.008C90.9728 68.008 92.2022 67.6533 93.2655 66.8186C94.3022 66.0047 95.0972 64.7994 95.7854 63.2551L93.9586 62.4409C93.3348 63.8406 92.7058 64.7153 92.0305 65.2454C91.3818 65.7547 90.6112 66.008 89.56 66.008V68.008ZM95.7805 63.266L104.452 44.418L102.636 43.582L93.9635 62.43L95.7805 63.266ZM119.155 60V61H120.155V60H119.155ZM119.155 44H120.155V43H119.155V44ZM116.403 44V43H115.403V44H116.403ZM108.403 44H109.403V43H108.403V44ZM105.651 44V43H104.651V44H105.651ZM116.403 52.544H117.403V49.2073L115.568 51.994L116.403 52.544ZM116.403 60H115.403V61H116.403V60ZM120.155 60V44H118.155V60H120.155ZM119.155 43H116.403V45H119.155V43ZM115.403 44V47.84H117.403V44H115.403ZM115.403 47.84C115.403 49.0583 114.942 49.8684 114.341 50.3873C113.716 50.9276 112.891 51.192 112.147 51.192V53.192C113.324 53.192 114.626 52.7844 115.649 51.9007C116.697 50.9956 117.403 49.6297 117.403 47.84H115.403ZM112.147 51.192C111.19 51.192 110.531 50.9882 110.119 50.6382C109.739 50.3148 109.403 49.7231 109.403 48.544H107.403C107.403 50.1169 107.868 51.3492 108.823 52.1618C109.748 52.9478 110.961 53.192 112.147 53.192V51.192ZM109.403 48.544V44H107.403V48.544H109.403ZM108.403 43H105.651V45H108.403V43ZM104.651 44V48.832H106.651V44H104.651ZM104.651 48.832C104.651 50.9484 105.315 52.6947 106.578 53.909C107.835 55.1169 109.571 55.688 111.507 55.688V53.688C109.956 53.688 108.763 53.2351 107.964 52.467C107.172 51.7053 106.651 50.5236 106.651 48.832H104.651ZM111.507 55.688C113.891 55.688 116.128 54.7795 117.238 53.094L115.568 51.994C114.95 52.9325 113.475 53.688 111.507 53.688V55.688ZM115.403 52.544V60H117.403V52.544H115.403ZM116.403 61H119.155V59H116.403V61ZM137.202 57.536H138.202V54.3163L136.378 56.9695L137.202 57.536ZM137.202 60H136.202V61H137.202V60ZM139.954 60V61H140.954V60H139.954ZM139.954 44H140.954V43H139.954V44ZM137.202 44V43H136.202V44H137.202ZM137.202 46.464L136.378 47.0305L138.202 49.6837V46.464H137.202ZM131.57 61.32C134.323 61.32 136.779 59.9172 138.026 58.1025L136.378 56.9695C135.514 58.2268 133.682 59.32 131.57 59.32V61.32ZM136.202 57.536V60H138.202V57.536H136.202ZM137.202 61H139.954V59H137.202V61ZM140.954 60V44H138.954V60H140.954ZM139.954 43H137.202V45H139.954V43ZM136.202 44V46.464H138.202V44H136.202ZM138.026 45.8975C136.779 44.0828 134.323 42.68 131.57 42.68V44.68C133.682 44.68 135.514 45.7732 136.378 47.0305L138.026 45.8975ZM131.57 42.68C126.469 42.68 122.73 46.943 122.73 52H124.73C124.73 47.905 127.711 44.68 131.57 44.68V42.68ZM122.73 52C122.73 57.057 126.469 61.32 131.57 61.32V59.32C127.711 59.32 124.73 56.095 124.73 52H122.73ZM131.986 56.792C129.38 56.792 127.514 54.7563 127.514 52H125.514C125.514 55.7077 128.128 58.792 131.986 58.792V56.792ZM127.514 52C127.514 49.2437 129.38 47.208 131.986 47.208V45.208C128.128 45.208 125.514 48.2923 125.514 52H127.514ZM131.986 47.208C134.557 47.208 136.426 49.2397 136.426 52H138.426C138.426 48.2963 135.816 45.208 131.986 45.208V47.208ZM136.426 52C136.426 54.7603 134.557 56.792 131.986 56.792V58.792C135.816 58.792 138.426 55.7037 138.426 52H136.426ZM148.238 60V61H148.731L149.031 60.6093L148.238 60ZM157.262 48.256H158.262V45.3133L156.47 47.6467L157.262 48.256ZM157.262 60H156.262V61H157.262V60ZM159.982 60V61H160.982V60H159.982ZM159.982 44H160.982V43H159.982V44ZM157.55 44V43H157.058L156.758 43.3907L157.55 44ZM148.526 55.744H147.526V58.6867L149.319 56.3533L148.526 55.744ZM148.526 44H149.526V43H148.526V44ZM145.774 44V43H144.774V44H145.774ZM145.774 60H144.774V61H145.774V60ZM158.222 36H159.222V35H158.222V36ZM156.046 36V35H155.046V36H156.046ZM150.222 36H151.222V35H150.222V36ZM148.046 36V35H147.046V36H148.046ZM149.031 60.6093L158.055 48.8653L156.47 47.6467L147.446 59.3907L149.031 60.6093ZM156.262 48.256V60H158.262V48.256H156.262ZM157.262 61H159.982V59H157.262V61ZM160.982 60V44H158.982V60H160.982ZM159.982 43H157.55V45H159.982V43ZM156.758 43.3907L147.734 55.1347L149.319 56.3533L158.343 44.6093L156.758 43.3907ZM149.526 55.744V44H147.526V55.744H149.526ZM148.526 43H145.774V45H148.526V43ZM144.774 44V60H146.774V44H144.774ZM145.774 61H148.238V59H145.774V61ZM153.134 42.504C156.465 42.504 159.222 40.1095 159.222 36.416H157.222C157.222 38.9305 155.436 40.504 153.134 40.504V42.504ZM159.222 36.416V36H157.222V36.416H159.222ZM158.222 35H156.046V37H158.222V35ZM155.046 36V36.416H157.046V36H155.046ZM155.046 36.416C155.046 37.2869 154.79 37.8246 154.485 38.1396C154.179 38.4551 153.726 38.648 153.134 38.648V40.648C154.175 40.648 155.178 40.2969 155.92 39.5324C156.662 38.7674 157.046 37.6891 157.046 36.416H155.046ZM153.134 38.648C152.543 38.648 152.09 38.4551 151.784 38.1396C151.478 37.8246 151.222 37.2869 151.222 36.416H149.222C149.222 37.6891 149.606 38.7674 150.349 39.5324C151.091 40.2969 152.094 40.648 153.134 40.648V38.648ZM151.222 36.416V36H149.222V36.416H151.222ZM150.222 35H148.046V37H150.222V35ZM147.046 36V36.416H149.046V36H147.046ZM147.046 36.416C147.046 40.1095 149.804 42.504 153.134 42.504V40.504C150.833 40.504 149.046 38.9305 149.046 36.416H147.046ZM168.892 60H167.892V61H168.892V60ZM171.644 60V61H172.644V60H171.644ZM171.644 46.528V45.528H170.644V46.528H171.644ZM176.956 46.528V47.528H177.956V46.528H176.956ZM176.956 44H177.956V43H176.956V44ZM163.804 44V43H162.804V44H163.804ZM163.804 46.528H162.804V47.528H163.804V46.528ZM168.892 46.528H169.892V45.528H168.892V46.528ZM168.892 61H171.644V59H168.892V61ZM172.644 60V46.528H170.644V60H172.644ZM171.644 47.528H176.956V45.528H171.644V47.528ZM177.956 46.528V44H175.956V46.528H177.956ZM176.956 43H163.804V45H176.956V43ZM162.804 44V46.528H164.804V44H162.804ZM163.804 47.528H168.892V45.528H163.804V47.528ZM167.892 46.528V60H169.892V46.528H167.892ZM194.577 55.136L195.542 55.3991L195.886 54.136H194.577V55.136ZM191.761 55.136V54.136H191.152L190.873 54.677L191.761 55.136ZM181.809 52.736V51.736H180.776L180.81 52.7689L181.809 52.736ZM194.833 52.736V53.736H195.765L195.831 52.8068L194.833 52.736ZM191.921 50.56V51.56H193.108L192.907 50.3904L191.921 50.56ZM181.937 50.56L180.95 50.3989L180.761 51.56H181.937V50.56ZM187.089 61.32C191.583 61.32 194.65 58.6699 195.542 55.3991L193.612 54.8729C192.969 57.2341 190.723 59.32 187.089 59.32V61.32ZM194.577 54.136H191.761V56.136H194.577V54.136ZM190.873 54.677C190.459 55.4782 189.937 55.9968 189.343 56.3242C188.74 56.656 188.004 56.824 187.121 56.824V58.824C188.255 58.824 189.342 58.608 190.308 58.0758C191.282 57.5392 192.072 56.7138 192.65 55.595L190.873 54.677ZM187.121 56.824C184.735 56.824 182.886 55.0626 182.809 52.7031L180.81 52.7689C180.924 56.2334 183.683 58.824 187.121 58.824V56.824ZM181.809 53.736H194.833V51.736H181.809V53.736ZM195.831 52.8068C196.022 50.114 195.314 47.5887 193.798 45.7185C192.27 43.8326 189.973 42.68 187.153 42.68V44.68C189.389 44.68 191.108 45.5754 192.244 46.9775C193.393 48.3953 193.997 50.398 193.836 52.6652L195.831 52.8068ZM187.153 42.68C184.389 42.68 182.085 43.6815 180.477 45.3907C178.876 47.0922 178.025 49.4284 178.025 52H180.025C180.025 49.8676 180.727 48.0438 181.934 46.7613C183.133 45.4865 184.894 44.68 187.153 44.68V42.68ZM178.025 52C178.025 57.2864 181.832 61.32 187.089 61.32V59.32C183.003 59.32 180.025 56.2496 180.025 52H178.025ZM187.057 47.112C188.048 47.112 188.894 47.4127 189.542 47.975C190.19 48.5378 190.712 49.4267 190.936 50.7296L192.907 50.3904C192.619 48.7173 191.909 47.3822 190.853 46.465C189.796 45.5473 188.466 45.112 187.057 45.112V47.112ZM191.921 49.56H181.937V51.56H191.921V49.56ZM182.924 50.7211C183.142 49.385 183.731 48.5055 184.449 47.9514C185.18 47.3865 186.108 47.112 187.057 47.112V45.112C185.735 45.112 184.359 45.4935 183.226 46.3686C182.079 47.2545 181.244 48.599 180.95 50.3989L182.924 50.7211ZM206.267 57.472V56.472H205.267V57.472H206.267ZM206.267 64.032H205.267V65.032H206.267V64.032ZM208.859 64.032V65.032H209.859V64.032H208.859ZM208.859 60V59H207.859V60H208.859ZM221.467 60H222.467V59H221.467V60ZM221.467 64.032H220.467V65.032H221.467V64.032ZM224.059 64.032V65.032H225.059V64.032H224.059ZM224.059 57.472H225.059V56.472H224.059V57.472ZM221.659 57.472H220.659V58.472H221.659V57.472ZM221.659 44H222.659V43H221.659V44ZM208.955 44V43H207.955V44H208.955ZM211.707 46.528V45.528H210.707V46.528H211.707ZM218.907 46.528H219.907V45.528H218.907V46.528ZM218.907 57.472V58.472H219.907V57.472H218.907ZM210.715 57.472L209.849 56.973L208.986 58.472H210.715V57.472ZM205.267 57.472V64.032H207.267V57.472H205.267ZM206.267 65.032H208.859V63.032H206.267V65.032ZM209.859 64.032V60H207.859V64.032H209.859ZM208.859 61H221.467V59H208.859V61ZM220.467 60V64.032H222.467V60H220.467ZM221.467 65.032H224.059V63.032H221.467V65.032ZM225.059 64.032V57.472H223.059V64.032H225.059ZM224.059 56.472H221.659V58.472H224.059V56.472ZM222.659 57.472V44H220.659V57.472H222.659ZM221.659 43H208.955V45H221.659V43ZM207.955 44V52.288H209.955V44H207.955ZM207.955 52.288C207.955 54.4024 207.674 55.483 207.377 56.0073C207.241 56.248 207.116 56.3458 207.031 56.3922C206.942 56.4409 206.825 56.472 206.651 56.472V58.472C207.07 58.472 207.537 58.3951 207.991 58.1468C208.449 57.8962 208.826 57.508 209.117 56.9927C209.677 56.005 209.955 54.4936 209.955 52.288H207.955ZM206.651 56.472H206.267V58.472H206.651V56.472ZM211.707 47.528H218.907V45.528H211.707V47.528ZM217.907 46.528V57.472H219.907V46.528H217.907ZM218.907 56.472H210.715V58.472H218.907V56.472ZM211.582 57.971C211.917 57.389 212.211 56.7779 212.412 55.9364C212.609 55.1122 212.707 54.1069 212.707 52.736H210.707C210.707 54.0211 210.614 54.8558 210.467 55.4716C210.324 56.0701 210.122 56.499 209.849 56.973L211.582 57.971ZM212.707 52.736V46.528H210.707V52.736H212.707ZM235.235 61.32C240.597 61.32 244.587 57.1502 244.587 52H242.587C242.587 56.0658 239.472 59.32 235.235 59.32V61.32ZM244.587 52C244.587 46.8498 240.597 42.68 235.235 42.68V44.68C239.472 44.68 242.587 47.9342 242.587 52H244.587ZM235.235 42.68C229.808 42.68 225.851 46.8498 225.851 52H227.851C227.851 47.9342 230.933 44.68 235.235 44.68V42.68ZM225.851 52C225.851 57.1502 229.808 61.32 235.235 61.32V59.32C230.933 59.32 227.851 56.0658 227.851 52H225.851ZM235.235 56.76C232.518 56.76 230.667 54.7085 230.667 52H228.667C228.667 55.6915 231.296 58.76 235.235 58.76V56.76ZM230.667 52C230.667 49.2915 232.518 47.24 235.235 47.24V45.24C231.296 45.24 228.667 48.3085 228.667 52H230.667ZM235.235 47.24C237.944 47.24 239.771 49.2835 239.771 52H241.771C241.771 48.3165 239.181 45.24 235.235 45.24V47.24ZM239.771 52C239.771 54.7165 237.944 56.76 235.235 56.76V58.76C239.181 58.76 241.771 55.6835 241.771 52H239.771ZM258.335 60L257.556 60.6267L257.856 61H258.335V60ZM261.727 60V61H263.825L262.504 59.3704L261.727 60ZM255.167 51.904L254.373 51.2963L253.895 51.9217L254.39 52.5336L255.167 51.904ZM261.215 44L262.009 44.6077L263.24 43H261.215V44ZM257.855 44V43H257.358L257.058 43.3965L257.855 44ZM253.471 49.792L252.676 50.3983L253.474 51.4451L254.269 50.3955L253.471 49.792ZM249.055 44L249.85 43.3937L249.55 43H249.055V44ZM245.727 44V43H243.709L244.932 44.6057L245.727 44ZM251.743 51.904L252.52 52.5336L253.015 51.9233L252.539 51.2983L251.743 51.904ZM245.183 60L244.406 59.3704L243.086 61H245.183V60ZM248.607 60V61H249.086L249.387 60.6267L248.607 60ZM253.471 53.952L254.251 53.3253L253.471 52.3564L252.692 53.3253L253.471 53.952ZM258.335 61H261.727V59H258.335V61ZM262.504 59.3704L255.944 51.2744L254.39 52.5336L260.95 60.6296L262.504 59.3704ZM255.961 52.5117L262.009 44.6077L260.421 43.3923L254.373 51.2963L255.961 52.5117ZM261.215 43H257.855V45H261.215V43ZM257.058 43.3965L252.674 49.1885L254.269 50.3955L258.653 44.6035L257.058 43.3965ZM254.266 49.1857L249.85 43.3937L248.26 44.6063L252.676 50.3983L254.266 49.1857ZM249.055 43H245.727V45H249.055V43ZM244.932 44.6057L250.948 52.5097L252.539 51.2983L246.523 43.3943L244.932 44.6057ZM250.966 51.2744L244.406 59.3704L245.96 60.6296L252.52 52.5336L250.966 51.2744ZM245.183 61H248.607V59H245.183V61ZM249.387 60.6267L254.251 54.5787L252.692 53.3253L247.828 59.3733L249.387 60.6267ZM252.692 54.5787L257.556 60.6267L259.115 59.3733L254.251 53.3253L252.692 54.5787ZM271.702 61.32C277.065 61.32 281.054 57.1502 281.054 52H279.054C279.054 56.0658 275.94 59.32 271.702 59.32V61.32ZM281.054 52C281.054 46.8498 277.065 42.68 271.702 42.68V44.68C275.94 44.68 279.054 47.9342 279.054 52H281.054ZM271.702 42.68C266.276 42.68 262.318 46.8498 262.318 52H264.318C264.318 47.9342 267.401 44.68 271.702 44.68V42.68ZM262.318 52C262.318 57.1502 266.276 61.32 271.702 61.32V59.32C267.401 59.32 264.318 56.0658 264.318 52H262.318ZM271.702 56.76C268.985 56.76 267.134 54.7085 267.134 52H265.134C265.134 55.6915 267.763 58.76 271.702 58.76V56.76ZM267.134 52C267.134 49.2915 268.985 47.24 271.702 47.24V45.24C267.763 45.24 265.134 48.3085 265.134 52H267.134ZM271.702 47.24C274.412 47.24 276.238 49.2835 276.238 52H278.238C278.238 48.3165 275.649 45.24 271.702 45.24V47.24ZM276.238 52C276.238 54.7165 274.412 56.76 271.702 56.76V58.76C275.649 58.76 278.238 55.6835 278.238 52H276.238ZM282.827 57.472V56.472H281.827V57.472H282.827ZM282.827 64.032H281.827V65.032H282.827V64.032ZM285.419 64.032V65.032H286.419V64.032H285.419ZM285.419 60V59H284.419V60H285.419ZM298.027 60H299.027V59H298.027V60ZM298.027 64.032H297.027V65.032H298.027V64.032ZM300.619 64.032V65.032H301.619V64.032H300.619ZM300.619 57.472H301.619V56.472H300.619V57.472ZM298.219 57.472H297.219V58.472H298.219V57.472ZM298.219 44H299.219V43H298.219V44ZM285.515 44V43H284.515V44H285.515ZM288.267 46.528V45.528H287.267V46.528H288.267ZM295.467 46.528H296.467V45.528H295.467V46.528ZM295.467 57.472V58.472H296.467V57.472H295.467ZM287.275 57.472L286.409 56.973L285.546 58.472H287.275V57.472ZM281.827 57.472V64.032H283.827V57.472H281.827ZM282.827 65.032H285.419V63.032H282.827V65.032ZM286.419 64.032V60H284.419V64.032H286.419ZM285.419 61H298.027V59H285.419V61ZM297.027 60V64.032H299.027V60H297.027ZM298.027 65.032H300.619V63.032H298.027V65.032ZM301.619 64.032V57.472H299.619V64.032H301.619ZM300.619 56.472H298.219V58.472H300.619V56.472ZM299.219 57.472V44H297.219V57.472H299.219ZM298.219 43H285.515V45H298.219V43ZM284.515 44V52.288H286.515V44H284.515ZM284.515 52.288C284.515 54.4024 284.234 55.483 283.937 56.0073C283.801 56.248 283.676 56.3458 283.591 56.3922C283.502 56.4409 283.385 56.472 283.211 56.472V58.472C283.63 58.472 284.097 58.3951 284.551 58.1468C285.009 57.8962 285.386 57.508 285.677 56.9927C286.237 56.005 286.515 54.4936 286.515 52.288H284.515ZM283.211 56.472H282.827V58.472H283.211V56.472ZM288.267 47.528H295.467V45.528H288.267V47.528ZM294.467 46.528V57.472H296.467V46.528H294.467ZM295.467 56.472H287.275V58.472H295.467V56.472ZM288.142 57.971C288.477 57.389 288.771 56.7779 288.972 55.9364C289.169 55.1122 289.267 54.1069 289.267 52.736H287.267C287.267 54.0211 287.174 54.8558 287.027 55.4716C286.884 56.0701 286.682 56.499 286.409 56.973L288.142 57.971ZM289.267 52.736V46.528H287.267V52.736H289.267ZM0.216 87.968H-0.784V88.968H0.216V87.968ZM5.752 87.968H6.752V86.968H5.752V87.968ZM5.752 93.472H4.752V94.472H5.752V93.472ZM8.248 93.472V94.472H9.248V93.472H8.248ZM8.248 87.968V86.968H7.248V87.968H8.248ZM13.752 87.968V88.968H14.752V87.968H13.752ZM13.752 85.504H14.752V84.504H13.752V85.504ZM8.248 85.504H7.248V86.504H8.248V85.504ZM8.248 80H9.248V79H8.248V80ZM5.752 80V79H4.752V80H5.752ZM5.752 85.504V86.504H6.752V85.504H5.752ZM0.216 85.504V84.504H-0.784V85.504H0.216ZM0.216 88.968H5.752V86.968H0.216V88.968ZM4.752 87.968V93.472H6.752V87.968H4.752ZM5.752 94.472H8.248V92.472H5.752V94.472ZM9.248 93.472V87.968H7.248V93.472H9.248ZM8.248 88.968H13.752V86.968H8.248V88.968ZM14.752 87.968V85.504H12.752V87.968H14.752ZM13.752 84.504H8.248V86.504H13.752V84.504ZM9.248 85.504V80H7.248V85.504H9.248ZM8.248 79H5.752V81H8.248V79ZM4.752 80V85.504H6.752V80H4.752ZM5.752 84.504H0.216V86.504H5.752V84.504ZM-0.784 85.504V87.968H1.216V85.504H-0.784ZM20.92 82.464L19.938 82.2753L19.4661 84.7314L21.5012 83.2777L20.92 82.464ZM22.168 75.968V74.968H21.3418L21.186 75.7793L22.168 75.968ZM30.584 75.968V76.968H31.584V75.968H30.584ZM30.584 73.28H31.584V72.28H30.584V73.28ZM19.96 73.28V72.28H19.1342L18.978 73.0909L19.96 73.28ZM17.624 85.408L16.642 85.2189L16.47 86.1122L17.3431 86.3677L17.624 85.408ZM20.248 86.176L19.9671 87.1357L20.6928 87.3481L21.0949 86.7078L20.248 86.176ZM19.608 89.856L20.5814 89.627L20.4 88.856H19.608V89.856ZM16.792 89.856V88.856H15.7641L15.7924 89.8835L16.792 89.856ZM24.408 97.32C29.322 97.32 33.12 93.7251 33.12 89.12H31.12C31.12 92.5149 28.326 95.32 24.408 95.32V97.32ZM33.12 89.12C33.12 84.177 29.7815 80.28 24.888 80.28V82.28C28.5065 82.28 31.12 85.103 31.12 89.12H33.12ZM24.888 80.28C22.9799 80.28 21.4014 80.8913 20.3388 81.6503L21.5012 83.2777C22.2306 82.7567 23.4041 82.28 24.888 82.28V80.28ZM21.902 82.6527L23.15 76.1567L21.186 75.7793L19.938 82.2753L21.902 82.6527ZM22.168 76.968H30.584V74.968H22.168V76.968ZM31.584 75.968V73.28H29.584V75.968H31.584ZM30.584 72.28H19.96V74.28H30.584V72.28ZM18.978 73.0909L16.642 85.2189L18.606 85.5971L20.942 73.4691L18.978 73.0909ZM17.3431 86.3677L19.9671 87.1357L20.5289 85.2163L17.9049 84.4483L17.3431 86.3677ZM21.0949 86.7078C21.7811 85.615 22.9376 84.872 24.536 84.872V82.872C22.2304 82.872 20.4429 83.985 19.4011 85.6442L21.0949 86.7078ZM24.536 84.872C26.7522 84.872 28.304 86.5516 28.304 88.768H30.304C30.304 85.5444 27.9518 82.872 24.536 82.872V84.872ZM28.304 88.768C28.304 90.9123 26.6631 92.632 24.408 92.632V94.632C27.7849 94.632 30.304 91.9997 30.304 88.768H28.304ZM24.408 92.632C22.4562 92.632 20.9909 91.3672 20.5814 89.627L18.6346 90.085C19.2491 92.6968 21.4958 94.632 24.408 94.632V92.632ZM19.608 88.856H16.792V90.856H19.608V88.856ZM15.7924 89.8835C15.9065 94.0283 19.8937 97.32 24.408 97.32V95.32C20.7303 95.32 17.8695 92.6597 17.7916 89.8285L15.7924 89.8835ZM38.6075 96H37.6075V97H38.6075V96ZM41.3595 96V97H42.3595V96H41.3595ZM41.3595 73.28H42.3595V72.28H41.3595V73.28ZM36.4635 73.28V72.28H35.9916L35.6916 72.6443L36.4635 73.28ZM34.2235 76L33.4516 75.3643L32.1045 77H34.2235V76ZM38.6075 76H39.6075V75H38.6075V76ZM38.6075 97H41.3595V95H38.6075V97ZM42.3595 96V73.28H40.3595V96H42.3595ZM41.3595 72.28H36.4635V74.28H41.3595V72.28ZM35.6916 72.6443L33.4516 75.3643L34.9954 76.6357L37.2354 73.9157L35.6916 72.6443ZM34.2235 77H38.6075V75H34.2235V77ZM37.6075 76V96H39.6075V76H37.6075ZM51.0297 95.296L51.8781 95.8255L51.8814 95.8201L51.0297 95.296ZM48.0537 96L48.9593 96.4243L49.3729 95.5415L48.501 95.1056L48.0537 96ZM45.9097 100.576L45.0042 100.152L44.3369 101.576H45.9097V100.576ZM47.7337 100.576V101.576H48.2884L48.582 101.106L47.7337 100.576ZM51.8814 95.8201C52.1984 95.3051 52.4777 94.6435 52.4777 93.856H50.4777C50.4777 94.1565 50.3731 94.4549 50.1781 94.7719L51.8814 95.8201ZM52.4777 93.856C52.4777 92.05 50.9999 90.456 49.1097 90.456V92.456C49.8436 92.456 50.4777 93.102 50.4777 93.856H52.4777ZM49.1097 90.456C47.2196 90.456 45.7417 92.05 45.7417 93.856H47.7417C47.7417 93.102 48.3759 92.456 49.1097 92.456V90.456ZM45.7417 93.856C45.7417 95.2483 46.5194 96.3509 47.6065 96.8944L48.501 95.1056C48.0521 94.8811 47.7417 94.4477 47.7417 93.856H45.7417ZM47.1482 95.5757L45.0042 100.152L46.8153 101L48.9593 96.4243L47.1482 95.5757ZM45.9097 101.576H47.7337V99.576H45.9097V101.576ZM48.582 101.106L51.878 95.8255L50.1815 94.7665L46.8855 100.046L48.582 101.106ZM56.0843 96L55.3219 95.3529L53.9237 97H56.0843V96ZM59.6043 96V97H60.0678L60.3674 96.6463L59.6043 96ZM67.9243 86.176L68.6874 86.8223L68.6876 86.8219L67.9243 86.176ZM63.0923 87.744L63.8546 88.3911L65.4372 86.5267L63.0017 86.7481L63.0923 87.744ZM56.0843 97H59.6043V95H56.0843V97ZM60.3674 96.6463L68.6874 86.8223L67.1611 85.5297L58.8411 95.3537L60.3674 96.6463ZM68.6876 86.8219C70.1357 85.1106 71.4843 83.1504 71.4843 80.384H69.4843C69.4843 82.4176 68.5288 83.9134 67.1609 85.5301L68.6876 86.8219ZM71.4843 80.384C71.4843 75.69 67.7267 71.896 62.7723 71.896V73.896C66.6498 73.896 69.4843 76.822 69.4843 80.384H71.4843ZM62.7723 71.896C57.7692 71.896 54.0923 75.7065 54.0923 80.48H56.0923C56.0923 76.8055 58.8793 73.896 62.7723 73.896V71.896ZM54.0923 80.48C54.0923 84.9452 57.8132 88.776 62.1963 88.776V86.776C58.9633 86.776 56.0923 83.8868 56.0923 80.48H54.0923ZM62.1963 88.776C62.4865 88.776 62.7819 88.7763 63.1828 88.7399L63.0017 86.7481C62.6986 86.7757 62.482 86.776 62.1963 86.776V88.776ZM62.3299 87.0969L55.3219 95.3529L56.8466 96.6471L63.8546 88.3911L62.3299 87.0969ZM62.7723 84.344C60.5619 84.344 58.9083 82.6053 58.9083 80.448H56.9083C56.9083 83.6667 59.4146 86.344 62.7723 86.344V84.344ZM58.9083 80.448C58.9083 78.2907 60.5619 76.552 62.7723 76.552V74.552C59.4146 74.552 56.9083 77.2293 56.9083 80.448H58.9083ZM62.7723 76.552C65.0189 76.552 66.6683 78.2951 66.6683 80.448H68.6683C68.6683 77.2249 66.1576 74.552 62.7723 74.552V76.552ZM66.6683 80.448C66.6683 82.6009 65.0189 84.344 62.7723 84.344V86.344C66.1576 86.344 68.6683 83.6711 68.6683 80.448H66.6683ZM82.3752 96V97H82.9254L83.2199 96.5353L82.3752 96ZM96.7752 73.28L97.6199 73.8153L98.593 72.28H96.7752V73.28ZM93.7992 73.28V72.28H93.2491L92.9546 72.7447L93.7992 73.28ZM79.3992 96L78.5546 95.4647L77.5815 97H79.3992V96ZM83.2199 96.5353L97.6199 73.8153L95.9306 72.7447L81.5306 95.4647L83.2199 96.5353ZM96.7752 72.28H93.7992V74.28H96.7752V72.28ZM92.9546 72.7447L78.5546 95.4647L80.2439 96.5353L94.6439 73.8153L92.9546 72.7447ZM79.3992 97H82.3752V95H79.3992V97ZM96.6152 97.256C100.624 97.256 103.919 93.9603 103.919 89.952H101.919C101.919 92.8557 99.519 95.256 96.6152 95.256V97.256ZM103.919 89.952C103.919 85.9084 100.62 82.648 96.6152 82.648V84.648C99.5223 84.648 101.919 87.0196 101.919 89.952H103.919ZM96.6152 82.648C92.575 82.648 89.3112 85.9117 89.3112 89.952H91.3112C91.3112 87.0163 93.6795 84.648 96.6152 84.648V82.648ZM89.3112 89.952C89.3112 93.957 92.5717 97.256 96.6152 97.256V95.256C93.6828 95.256 91.3112 92.859 91.3112 89.952H89.3112ZM96.6152 92.76C95.0508 92.76 93.8392 91.4754 93.8392 89.952H91.8392C91.8392 92.5246 93.8917 94.76 96.6152 94.76V92.76ZM93.8392 89.952C93.8392 88.4286 95.0508 87.144 96.6152 87.144V85.144C93.8917 85.144 91.8392 87.3794 91.8392 89.952H93.8392ZM96.6152 87.144C98.1001 87.144 99.3912 88.4454 99.3912 89.952H101.391C101.391 87.3626 99.2264 85.144 96.6152 85.144V87.144ZM99.3912 89.952C99.3912 91.4586 98.1001 92.76 96.6152 92.76V94.76C99.2264 94.76 101.391 92.5414 101.391 89.952H99.3912ZM79.5592 86.632C83.5675 86.632 86.8632 83.3363 86.8632 79.328H84.8632C84.8632 82.2317 82.463 84.632 79.5592 84.632V86.632ZM86.8632 79.328C86.8632 75.2844 83.5642 72.024 79.5592 72.024V74.024C82.4663 74.024 84.8632 76.3956 84.8632 79.328H86.8632ZM79.5592 72.024C75.519 72.024 72.2552 75.2877 72.2552 79.328H74.2552C74.2552 76.3923 76.6235 74.024 79.5592 74.024V72.024ZM72.2552 79.328C72.2552 83.333 75.5157 86.632 79.5592 86.632V84.632C76.6268 84.632 74.2552 82.235 74.2552 79.328H72.2552ZM79.5592 82.136C77.9948 82.136 76.7832 80.8514 76.7832 79.328H74.7832C74.7832 81.9006 76.8357 84.136 79.5592 84.136V82.136ZM76.7832 79.328C76.7832 77.8046 77.9948 76.52 79.5592 76.52V74.52C76.8357 74.52 74.7832 76.7554 74.7832 79.328H76.7832ZM79.5592 76.52C81.0441 76.52 82.3352 77.8214 82.3352 79.328H84.3352C84.3352 76.7386 82.1704 74.52 79.5592 74.52V76.52ZM82.3352 79.328C82.3352 80.8346 81.0441 82.136 79.5592 82.136V84.136C82.1704 84.136 84.3352 81.9174 84.3352 79.328H82.3352ZM115.541 96H114.541V97H115.541V96ZM118.293 96V97H119.293V96H118.293ZM118.293 82.528V81.528H117.293V82.528H118.293ZM125.557 82.528V83.528H126.557V82.528H125.557ZM125.557 80H126.557V79H125.557V80ZM115.541 80V79H114.541V80H115.541ZM115.541 97H118.293V95H115.541V97ZM119.293 96V82.528H117.293V96H119.293ZM118.293 83.528H125.557V81.528H118.293V83.528ZM126.557 82.528V80H124.557V82.528H126.557ZM125.557 79H115.541V81H125.557V79ZM114.541 80V96H116.541V80H114.541ZM135.941 97.32C141.303 97.32 145.293 93.1502 145.293 88H143.293C143.293 92.0658 140.179 95.32 135.941 95.32V97.32ZM145.293 88C145.293 82.8498 141.303 78.68 135.941 78.68V80.68C140.179 80.68 143.293 83.9342 143.293 88H145.293ZM135.941 78.68C130.515 78.68 126.557 82.8498 126.557 88H128.557C128.557 83.9342 131.639 80.68 135.941 80.68V78.68ZM126.557 88C126.557 93.1502 130.515 97.32 135.941 97.32V95.32C131.639 95.32 128.557 92.0658 128.557 88H126.557ZM135.941 92.76C133.224 92.76 131.373 90.7085 131.373 88H129.373C129.373 91.6915 132.002 94.76 135.941 94.76V92.76ZM131.373 88C131.373 85.2915 133.224 83.24 135.941 83.24V81.24C132.002 81.24 129.373 84.3085 129.373 88H131.373ZM135.941 83.24C138.65 83.24 140.477 85.2835 140.477 88H142.477C142.477 84.3165 139.888 81.24 135.941 81.24V83.24ZM140.477 88C140.477 90.7165 138.65 92.76 135.941 92.76V94.76C139.888 94.76 142.477 91.6835 142.477 88H140.477ZM147.066 93.472V92.472H146.066V93.472H147.066ZM147.066 100.032H146.066V101.032H147.066V100.032ZM149.658 100.032V101.032H150.658V100.032H149.658ZM149.658 96V95H148.658V96H149.658ZM162.266 96H163.266V95H162.266V96ZM162.266 100.032H161.266V101.032H162.266V100.032ZM164.858 100.032V101.032H165.858V100.032H164.858ZM164.858 93.472H165.858V92.472H164.858V93.472ZM162.458 93.472H161.458V94.472H162.458V93.472ZM162.458 80H163.458V79H162.458V80ZM149.754 80V79H148.754V80H149.754ZM152.506 82.528V81.528H151.506V82.528H152.506ZM159.706 82.528H160.706V81.528H159.706V82.528ZM159.706 93.472V94.472H160.706V93.472H159.706ZM151.514 93.472L150.647 92.973L149.784 94.472H151.514V93.472ZM146.066 93.472V100.032H148.066V93.472H146.066ZM147.066 101.032H149.658V99.032H147.066V101.032ZM150.658 100.032V96H148.658V100.032H150.658ZM149.658 97H162.266V95H149.658V97ZM161.266 96V100.032H163.266V96H161.266ZM162.266 101.032H164.858V99.032H162.266V101.032ZM165.858 100.032V93.472H163.858V100.032H165.858ZM164.858 92.472H162.458V94.472H164.858V92.472ZM163.458 93.472V80H161.458V93.472H163.458ZM162.458 79H149.754V81H162.458V79ZM148.754 80V88.288H150.754V80H148.754ZM148.754 88.288C148.754 90.4024 148.473 91.483 148.176 92.0073C148.04 92.248 147.914 92.3458 147.83 92.3922C147.741 92.4409 147.624 92.472 147.45 92.472V94.472C147.868 94.472 148.335 94.3951 148.789 94.1468C149.248 93.8962 149.624 93.508 149.916 92.9927C150.475 92.005 150.754 90.4936 150.754 88.288H148.754ZM147.45 92.472H147.066V94.472H147.45V92.472ZM152.506 83.528H159.706V81.528H152.506V83.528ZM158.706 82.528V93.472H160.706V82.528H158.706ZM159.706 92.472H151.514V94.472H159.706V92.472ZM152.381 93.971C152.716 93.389 153.01 92.7779 153.211 91.9364C153.408 91.1122 153.506 90.1069 153.506 88.736H151.506C151.506 90.0211 151.412 90.8558 151.265 91.4716C151.122 92.0701 150.92 92.499 150.647 92.973L152.381 93.971ZM153.506 88.736V82.528H151.506V88.736H153.506ZM176.033 97.32C181.396 97.32 185.385 93.1502 185.385 88H183.385C183.385 92.0658 180.271 95.32 176.033 95.32V97.32ZM185.385 88C185.385 82.8498 181.396 78.68 176.033 78.68V80.68C180.271 80.68 183.385 83.9342 183.385 88H185.385ZM176.033 78.68C170.607 78.68 166.649 82.8498 166.649 88H168.649C168.649 83.9342 171.732 80.68 176.033 80.68V78.68ZM166.649 88C166.649 93.1502 170.607 97.32 176.033 97.32V95.32C171.732 95.32 168.649 92.0658 168.649 88H166.649ZM176.033 92.76C173.317 92.76 171.465 90.7085 171.465 88H169.465C169.465 91.6915 172.094 94.76 176.033 94.76V92.76ZM171.465 88C171.465 85.2915 173.317 83.24 176.033 83.24V81.24C172.094 81.24 169.465 84.3085 169.465 88H171.465ZM176.033 83.24C178.743 83.24 180.569 85.2835 180.569 88H182.569C182.569 84.3165 179.98 81.24 176.033 81.24V83.24ZM180.569 88C180.569 90.7165 178.743 92.76 176.033 92.76V94.76C179.98 94.76 182.569 91.6835 182.569 88H180.569ZM188.976 96H187.976V97H188.976V96ZM199.856 87.456L199.245 86.6642L197.963 87.6534L199.421 88.3568L199.856 87.456ZM188.976 80V79H187.976V80H188.976ZM191.728 93.6H190.728V94.6H191.728V93.6ZM191.728 88.832V87.832H190.728V88.832H191.728ZM191.728 86.624H190.728V87.624H191.728V86.624ZM191.728 82.368V81.368H190.728V82.368H191.728ZM188.976 97H196.72V95H188.976V97ZM196.72 97C198.922 97 200.63 96.4176 201.797 95.3557C202.971 94.2869 203.48 92.8395 203.48 91.36H201.48C201.48 92.3765 201.14 93.2491 200.451 93.8763C199.754 94.5104 198.582 95 196.72 95V97ZM203.48 91.36C203.48 89.2829 202.401 87.5729 200.29 86.5552L199.421 88.3568C200.895 89.0671 201.48 90.1091 201.48 91.36H203.48ZM200.467 88.2478C201.831 87.1949 202.424 85.9108 202.424 84.352H200.424C200.424 85.2892 200.12 85.9891 199.245 86.6642L200.467 88.2478ZM202.424 84.352C202.424 82.8006 201.858 81.415 200.684 80.4361C199.533 79.4759 197.91 79 195.952 79V81C197.61 81 198.722 81.4041 199.403 81.9719C200.062 82.521 200.424 83.3114 200.424 84.352H202.424ZM195.952 79H188.976V81H195.952V79ZM187.976 80V96H189.976V80H187.976ZM192.728 93.6V88.832H190.728V93.6H192.728ZM191.728 89.832H196.88V87.832H191.728V89.832ZM196.88 89.832C197.558 89.832 198.004 90.0024 198.262 90.2134C198.493 90.4025 198.664 90.697 198.664 91.2H200.664C200.664 90.167 200.275 89.2775 199.53 88.6666C198.811 88.0775 197.865 87.832 196.88 87.832V89.832ZM198.664 91.2C198.664 91.7046 198.491 92.0109 198.254 92.2088C197.995 92.4258 197.55 92.6 196.88 92.6V94.6C197.874 94.6 198.821 94.3422 199.537 93.7432C200.276 93.1251 200.664 92.2314 200.664 91.2H198.664ZM196.88 92.6H191.728V94.6H196.88V92.6ZM192.728 86.624V82.368H190.728V86.624H192.728ZM191.728 83.368H196.176V81.368H191.728V83.368ZM196.176 83.368C196.688 83.368 197.069 83.477 197.295 83.6382C197.467 83.7607 197.64 83.9713 197.64 84.48H199.64C199.64 83.3887 199.204 82.5433 198.456 82.0098C197.762 81.515 196.912 81.368 196.176 81.368V83.368ZM197.64 84.48C197.64 85.0122 197.461 85.23 197.291 85.3531C197.066 85.515 196.688 85.624 196.176 85.624V87.624C196.911 87.624 197.765 87.477 198.461 86.9749C199.21 86.434 199.64 85.5798 199.64 84.48H197.64ZM196.176 85.624H191.728V87.624H196.176V85.624ZM221.837 96H220.837V97H221.837V96ZM224.589 96V97H225.589V96H224.589ZM224.589 80H225.589V79H224.589V80ZM221.837 80V79H220.837V80H221.837ZM207.053 96H206.053V97H207.053V96ZM209.805 85.76H208.805V86.76H209.805V85.76ZM209.805 80H210.805V79H209.805V80ZM207.053 80V79H206.053V80H207.053ZM209.805 88.256V87.256H208.805V88.256H209.805ZM209.805 93.504H208.805V94.504H209.805V93.504ZM221.837 97H224.589V95H221.837V97ZM225.589 96V80H223.589V96H225.589ZM224.589 79H221.837V81H224.589V79ZM220.837 80V96H222.837V80H220.837ZM207.053 97H213.485V95H207.053V97ZM213.485 97C215.771 97 217.516 96.2672 218.69 95.0732C219.854 93.8902 220.373 92.3387 220.373 90.848H218.373C218.373 91.8853 218.013 92.9098 217.264 93.6708C216.527 94.4208 215.328 95 213.485 95V97ZM220.373 90.848C220.373 89.3883 219.861 87.8532 218.706 86.6788C217.54 85.4929 215.803 84.76 213.517 84.76V86.76C215.36 86.76 216.55 87.3391 217.28 88.0812C218.021 88.8348 218.373 89.8437 218.373 90.848H220.373ZM213.517 84.76H209.805V86.76H213.517V84.76ZM210.805 85.76V80H208.805V85.76H210.805ZM209.805 79H207.053V81H209.805V79ZM206.053 80V96H208.053V80H206.053ZM209.805 89.256H213.421V87.256H209.805V89.256ZM213.421 89.256C214.312 89.256 214.857 89.4598 215.16 89.7055C215.432 89.9251 215.621 90.2658 215.621 90.848H217.621C217.621 89.7662 217.235 88.8109 216.418 88.1505C215.634 87.5162 214.579 87.256 213.421 87.256V89.256ZM215.621 90.848C215.621 91.4241 215.428 91.7884 215.136 92.029C214.819 92.2909 214.265 92.504 213.389 92.504V94.504C214.561 94.504 215.623 94.2211 216.41 93.571C217.223 92.8996 217.621 91.9359 217.621 90.848H215.621ZM213.389 92.504H209.805V94.504H213.389V92.504ZM210.805 93.504V88.256H208.805V93.504H210.805ZM241.195 96L240.416 96.6267L240.716 97H241.195V96ZM244.587 96V97H246.685L245.364 95.3704L244.587 96ZM238.027 87.904L237.233 87.2963L236.755 87.9217L237.25 88.5336L238.027 87.904ZM244.075 80L244.869 80.6077L246.1 79H244.075V80ZM240.715 80V79H240.218L239.918 79.3965L240.715 80ZM236.331 85.792L235.536 86.3983L236.334 87.4451L237.129 86.3955L236.331 85.792ZM231.915 80L232.71 79.3937L232.41 79H231.915V80ZM228.587 80V79H226.569L227.792 80.6057L228.587 80ZM234.603 87.904L235.38 88.5336L235.875 87.9233L235.399 87.2983L234.603 87.904ZM228.043 96L227.266 95.3704L225.946 97H228.043V96ZM231.467 96V97H231.946L232.247 96.6267L231.467 96ZM236.331 89.952L237.111 89.3253L236.331 88.3564L235.552 89.3253L236.331 89.952ZM241.195 97H244.587V95H241.195V97ZM245.364 95.3704L238.804 87.2744L237.25 88.5336L243.81 96.6296L245.364 95.3704ZM238.821 88.5117L244.869 80.6077L243.281 79.3923L237.233 87.2963L238.821 88.5117ZM244.075 79H240.715V81H244.075V79ZM239.918 79.3965L235.534 85.1885L237.129 86.3955L241.513 80.6035L239.918 79.3965ZM237.126 85.1857L232.71 79.3937L231.12 80.6063L235.536 86.3983L237.126 85.1857ZM231.915 79H228.587V81H231.915V79ZM227.792 80.6057L233.808 88.5097L235.399 87.2983L229.383 79.3943L227.792 80.6057ZM233.826 87.2744L227.266 95.3704L228.82 96.6296L235.38 88.5336L233.826 87.2744ZM228.043 97H231.467V95H228.043V97ZM232.247 96.6267L237.111 90.5787L235.552 89.3253L230.688 95.3733L232.247 96.6267ZM235.552 90.5787L240.416 96.6267L241.975 95.3733L237.111 89.3253L235.552 90.5787Z" fill="#002A66"/>
</svg>
